<svg width="22" height="22" viewBox="0 0 22 22" fill="none" xmlns="http://www.w3.org/2000/svg">
<path fill-rule="evenodd" clip-rule="evenodd" d="M2.64498 7.69015C2.64156 7.92178 2.64052 8.1705 2.6402 8.43797C2.64006 8.55501 2.64006 8.67564 2.64006 8.79999V13.2C2.64006 15.2742 2.64006 16.3113 3.28443 16.9556C3.92879 17.6 4.96588 17.6 7.04006 17.6H15.8401C17.9142 17.6 18.9513 17.6 19.5957 16.9556C20.2401 16.3113 20.2401 15.2742 20.2401 13.2V8.79999C20.2401 8.67564 20.2401 8.55501 20.2399 8.43797C20.2396 8.1705 20.2386 7.92178 20.2351 7.69015C20.2151 6.33251 20.1131 5.56181 19.5957 5.04436C18.9513 4.39999 17.9142 4.39999 15.8401 4.39999H7.04006C4.96588 4.39999 3.92879 4.39999 3.28443 5.04436C2.76698 5.56181 2.66506 6.33251 2.64498 7.69015ZM18.9138 7.62522C18.9061 7.18358 18.8891 6.84284 18.8513 6.56188C18.7904 6.10917 18.6984 6.01379 18.6623 5.97774C18.6263 5.94169 18.5309 5.84964 18.0782 5.78877C17.5875 5.7228 16.9145 5.71999 15.8401 5.71999H7.04006C5.96565 5.71999 5.29264 5.7228 4.80195 5.78877C4.34923 5.84964 4.25385 5.94169 4.21781 5.97774C4.18176 6.01379 4.0897 6.10917 4.02884 6.56188C3.99106 6.84284 3.974 7.18358 3.96631 7.62522L10.7514 11.0177C11.1849 11.2345 11.6952 11.2345 12.1288 11.0177L18.9138 7.62522ZM3.96006 9.0979V13.2C3.96006 14.2744 3.96286 14.9474 4.02884 15.4381C4.0897 15.8908 4.18176 15.9862 4.21781 16.0222C4.25385 16.0583 4.34923 16.1504 4.80195 16.2112C5.29264 16.2772 5.96565 16.28 7.04006 16.28H15.8401C16.9145 16.28 17.5875 16.2772 18.0782 16.2112C18.5309 16.1504 18.6263 16.0583 18.6623 16.0222C18.6984 15.9862 18.7904 15.8908 18.8513 15.4381C18.9173 14.9474 18.9201 14.2744 18.9201 13.2V9.0979L12.7191 12.1984C11.9139 12.601 10.9662 12.601 10.161 12.1984L3.96006 9.0979Z" fill="#D89D81"/>
</svg>
