<svg width="50" height="50" viewBox="0 0 50 50" fill="none" xmlns="http://www.w3.org/2000/svg">
<mask id="path-1-inside-1_4382_78" fill="white">
<path d="M44.4107 27.5145C44.1825 26.734 43.9863 25.9947 43.9863 25.3009C43.9863 24.5433 44.2236 23.7309 44.4746 22.8683C44.8489 21.5903 45.2323 20.2713 44.8261 19.0253C44.4016 17.7246 43.288 16.8665 42.2109 16.0404C41.5217 15.511 40.8736 15.0135 40.4537 14.443C40.0292 13.8588 39.7508 13.0784 39.4542 12.2523C39.0023 10.9835 38.5322 9.66902 37.4414 8.87487C36.3597 8.08985 34.9768 8.04878 33.6304 8.0077C32.745 7.98032 31.9143 7.9575 31.2115 7.72929C30.5542 7.51478 29.8925 7.05838 29.1896 6.57915C28.1125 5.83977 26.8939 4.99998 25.4973 4.99998C24.1007 4.99998 22.8821 5.83977 21.8095 6.57915C21.1066 7.06294 20.4448 7.51935 19.7876 7.73386C19.0848 7.96206 18.2541 7.98488 17.3687 8.01226C16.0268 8.05334 14.6394 8.09442 13.5577 8.87944C12.4669 9.67358 11.9968 10.988 11.5449 12.2568C11.2483 13.0829 10.9699 13.8634 10.5454 14.4476C10.1301 15.0181 9.48197 15.5156 8.7928 16.045C7.71568 16.8711 6.59748 17.7291 6.17303 19.0345C5.76683 20.2805 6.15477 21.604 6.52902 22.882C6.78005 23.7446 7.01738 24.557 7.01738 25.3101C7.01738 26.0631 6.78005 26.8801 6.52902 27.7427C6.15477 29.0206 5.77139 30.3396 6.17303 31.5902C6.59748 32.891 7.71112 33.749 8.78823 34.5751C9.47741 35.1045 10.1255 35.602 10.5454 36.1725C10.9699 36.7567 11.2483 37.5372 11.5449 38.3633C11.9968 39.6366 12.4669 40.9465 13.5577 41.7452C14.6348 42.5303 16.0223 42.5713 17.3641 42.6124C18.2495 42.6398 19.0848 42.6626 19.7831 42.8908C20.4403 43.1053 21.1021 43.5617 21.8049 44.0455C22.8775 44.7849 24.0961 45.6247 25.4973 45.6247C26.8984 45.6247 28.1125 44.7895 29.185 44.0501C29.8879 43.5663 30.5542 43.1099 31.2115 42.8954C31.9143 42.6672 32.745 42.6444 33.6304 42.617C34.9723 42.5759 36.3597 42.5348 37.4414 41.7498C38.5322 40.9557 39.0023 39.6412 39.4542 38.3724C39.7508 37.5463 40.0292 36.7613 40.4537 36.1771C40.869 35.6066 41.5171 35.1091 42.2063 34.5797C43.288 33.7536 44.4016 32.8955 44.8261 31.5902C45.2094 30.4127 44.8854 29.1758 44.5385 27.9663M43.2971 28.3269C43.6029 29.3858 43.863 30.3762 43.5983 31.1931C43.2971 32.1151 42.3889 32.8134 41.4258 33.5527C40.6956 34.1141 39.938 34.6938 39.4131 35.4149C38.8791 36.1497 38.555 37.0534 38.2447 37.9342C37.8385 39.0707 37.4597 40.1432 36.6883 40.7001C35.9307 41.2523 34.7988 41.2843 33.5985 41.3208C32.6628 41.3482 31.6953 41.3801 30.819 41.6631C29.9837 41.9369 29.2124 42.4664 28.4639 42.9821L28.5917 43.1738L28.4639 42.9867C27.4552 43.6804 26.5059 44.3376 25.511 44.3376C24.516 44.3376 23.5621 43.6804 22.558 42.9867C21.8095 42.4709 21.0382 41.9369 20.1984 41.6676C19.3221 41.3847 18.3591 41.3527 17.4189 41.3253C16.2185 41.2888 15.0866 41.2569 14.329 40.7046C13.5577 40.1432 13.1789 39.0707 12.7727 37.9342C12.4623 37.0579 12.1383 36.1543 11.6043 35.4194C11.0794 34.6938 10.3218 34.1187 9.59151 33.5573C8.62849 32.8179 7.72024 32.1196 7.41902 31.1977C7.13604 30.3305 7.45096 29.2534 7.78414 28.1169C8.04886 27.2041 8.32726 26.2639 8.32726 25.3192C8.32726 24.3744 8.05342 23.4388 7.7887 22.526C7.45553 21.385 7.14061 20.3078 7.42358 19.4407C7.72481 18.5187 8.63306 17.8204 9.59607 17.0811C10.3263 16.5197 11.084 15.94 11.6088 15.2189C12.1428 14.4841 12.4669 13.5759 12.7772 12.6996C13.1834 11.5631 13.5622 10.4905 14.3336 9.92917C15.0912 9.37692 16.2231 9.34497 17.4234 9.30846C18.3591 9.28107 19.3267 9.24912 20.1984 8.96615C21.0336 8.69231 21.8049 8.16288 22.558 7.64714C23.5667 6.9534 24.5206 6.30074 25.511 6.30074C26.5014 6.30074 27.4598 6.95797 28.4639 7.6517C29.2124 8.16744 29.9837 8.69687 30.8235 8.97072C31.6998 9.25369 32.6674 9.28564 33.603 9.31302C34.8034 9.34953 35.9353 9.38148 36.6929 9.93373C37.4642 10.4951 37.843 11.5677 38.2492 12.7041C38.5596 13.5804 38.8837 14.4841 39.4176 15.2235C39.9471 15.9492 40.7001 16.5288 41.4304 17.0856C42.3934 17.825 43.3017 18.5233 43.6029 19.4452C43.8859 20.3124 43.5709 21.3895 43.2378 22.5305C42.973 23.4434 42.6946 24.3835 42.6946 25.3237C42.6946 26.1864 42.9274 27.0535 43.1693 27.8933"/>
<path d="M25.4471 20.5087C25.4471 17.898 23.3248 15.7757 20.7141 15.7757C18.1035 15.7757 15.9812 17.898 15.9812 20.5087C15.9812 23.1193 18.1035 25.2416 20.7141 25.2416C23.3248 25.2416 25.4471 23.1193 25.4471 20.5087ZM20.7141 23.95C18.8155 23.95 17.2728 22.4073 17.2728 20.5087C17.2728 18.61 18.8155 17.0674 20.7141 17.0674C22.6128 17.0674 24.1554 18.61 24.1554 20.5087C24.1554 22.4073 22.6128 23.95 20.7141 23.95Z"/>
<path d="M30.2987 25.3603C27.688 25.3603 25.5657 27.4825 25.5657 30.0932C25.5657 32.7038 27.688 34.8261 30.2987 34.8261C32.9093 34.8261 35.0316 32.7038 35.0316 30.0932C35.0316 27.4825 32.9093 25.3603 30.2987 25.3603ZM30.2987 33.5345C28.4 33.5345 26.8574 31.9918 26.8574 30.0932C26.8574 28.1945 28.4 26.6519 30.2987 26.6519C32.1973 26.6519 33.74 28.1945 33.74 30.0932C33.74 31.9918 32.1973 33.5345 30.2987 33.5345Z"/>
<path d="M33.0462 17.7611C32.8043 17.5146 32.3753 17.5146 32.1334 17.7611L17.9711 31.9234C17.8479 32.0466 17.784 32.2063 17.784 32.3798C17.784 32.5532 17.8525 32.713 17.9711 32.8362C18.0944 32.9594 18.2632 33.0233 18.4275 33.0233C18.5918 33.0233 18.7607 32.9594 18.8839 32.8362L33.0462 18.6739C33.2972 18.4229 33.2972 18.0121 33.0462 17.7611Z"/>
</mask>
<path d="M44.4107 27.5145C44.1825 26.734 43.9863 25.9947 43.9863 25.3009C43.9863 24.5433 44.2236 23.7309 44.4746 22.8683C44.8489 21.5903 45.2323 20.2713 44.8261 19.0253C44.4016 17.7246 43.288 16.8665 42.2109 16.0404C41.5217 15.511 40.8736 15.0135 40.4537 14.443C40.0292 13.8588 39.7508 13.0784 39.4542 12.2523C39.0023 10.9835 38.5322 9.66902 37.4414 8.87487C36.3597 8.08985 34.9768 8.04878 33.6304 8.0077C32.745 7.98032 31.9143 7.9575 31.2115 7.72929C30.5542 7.51478 29.8925 7.05838 29.1896 6.57915C28.1125 5.83977 26.8939 4.99998 25.4973 4.99998C24.1007 4.99998 22.8821 5.83977 21.8095 6.57915C21.1066 7.06294 20.4448 7.51935 19.7876 7.73386C19.0848 7.96206 18.2541 7.98488 17.3687 8.01226C16.0268 8.05334 14.6394 8.09442 13.5577 8.87944C12.4669 9.67358 11.9968 10.988 11.5449 12.2568C11.2483 13.0829 10.9699 13.8634 10.5454 14.4476C10.1301 15.0181 9.48197 15.5156 8.7928 16.045C7.71568 16.8711 6.59748 17.7291 6.17303 19.0345C5.76683 20.2805 6.15477 21.604 6.52902 22.882C6.78005 23.7446 7.01738 24.557 7.01738 25.3101C7.01738 26.0631 6.78005 26.8801 6.52902 27.7427C6.15477 29.0206 5.77139 30.3396 6.17303 31.5902C6.59748 32.891 7.71112 33.749 8.78823 34.5751C9.47741 35.1045 10.1255 35.602 10.5454 36.1725C10.9699 36.7567 11.2483 37.5372 11.5449 38.3633C11.9968 39.6366 12.4669 40.9465 13.5577 41.7452C14.6348 42.5303 16.0223 42.5713 17.3641 42.6124C18.2495 42.6398 19.0848 42.6626 19.7831 42.8908C20.4403 43.1053 21.1021 43.5617 21.8049 44.0455C22.8775 44.7849 24.0961 45.6247 25.4973 45.6247C26.8984 45.6247 28.1125 44.7895 29.185 44.0501C29.8879 43.5663 30.5542 43.1099 31.2115 42.8954C31.9143 42.6672 32.745 42.6444 33.6304 42.617C34.9723 42.5759 36.3597 42.5348 37.4414 41.7498C38.5322 40.9557 39.0023 39.6412 39.4542 38.3724C39.7508 37.5463 40.0292 36.7613 40.4537 36.1771C40.869 35.6066 41.5171 35.1091 42.2063 34.5797C43.288 33.7536 44.4016 32.8955 44.8261 31.5902C45.2094 30.4127 44.8854 29.1758 44.5385 27.9663M43.2971 28.3269C43.6029 29.3858 43.863 30.3762 43.5983 31.1931C43.2971 32.1151 42.3889 32.8134 41.4258 33.5527C40.6956 34.1141 39.938 34.6938 39.4131 35.4149C38.8791 36.1497 38.555 37.0534 38.2447 37.9342C37.8385 39.0707 37.4597 40.1432 36.6883 40.7001C35.9307 41.2523 34.7988 41.2843 33.5985 41.3208C32.6628 41.3482 31.6953 41.3801 30.819 41.6631C29.9837 41.9369 29.2124 42.4664 28.4639 42.9821L28.5917 43.1738L28.4639 42.9867C27.4552 43.6804 26.5059 44.3376 25.511 44.3376C24.516 44.3376 23.5621 43.6804 22.558 42.9867C21.8095 42.4709 21.0382 41.9369 20.1984 41.6676C19.3221 41.3847 18.3591 41.3527 17.4189 41.3253C16.2185 41.2888 15.0866 41.2569 14.329 40.7046C13.5577 40.1432 13.1789 39.0707 12.7727 37.9342C12.4623 37.0579 12.1383 36.1543 11.6043 35.4194C11.0794 34.6938 10.3218 34.1187 9.59151 33.5573C8.62849 32.8179 7.72024 32.1196 7.41902 31.1977C7.13604 30.3305 7.45096 29.2534 7.78414 28.1169C8.04886 27.2041 8.32726 26.2639 8.32726 25.3192C8.32726 24.3744 8.05342 23.4388 7.7887 22.526C7.45553 21.385 7.14061 20.3078 7.42358 19.4407C7.72481 18.5187 8.63306 17.8204 9.59607 17.0811C10.3263 16.5197 11.084 15.94 11.6088 15.2189C12.1428 14.4841 12.4669 13.5759 12.7772 12.6996C13.1834 11.5631 13.5622 10.4905 14.3336 9.92917C15.0912 9.37692 16.2231 9.34497 17.4234 9.30846C18.3591 9.28107 19.3267 9.24912 20.1984 8.96615C21.0336 8.69231 21.8049 8.16288 22.558 7.64714C23.5667 6.9534 24.5206 6.30074 25.511 6.30074C26.5014 6.30074 27.4598 6.95797 28.4639 7.6517C29.2124 8.16744 29.9837 8.69687 30.8235 8.97072C31.6998 9.25369 32.6674 9.28564 33.603 9.31302C34.8034 9.34953 35.9353 9.38148 36.6929 9.93373C37.4642 10.4951 37.843 11.5677 38.2492 12.7041C38.5596 13.5804 38.8837 14.4841 39.4176 15.2235C39.9471 15.9492 40.7001 16.5288 41.4304 17.0856C42.3934 17.825 43.3017 18.5233 43.6029 19.4452C43.8859 20.3124 43.5709 21.3895 43.2378 22.5305C42.973 23.4434 42.6946 24.3835 42.6946 25.3237C42.6946 26.1864 42.9274 27.0535 43.1693 27.8933" fill="white"/>
<path d="M25.4471 20.5087C25.4471 17.898 23.3248 15.7757 20.7141 15.7757C18.1035 15.7757 15.9812 17.898 15.9812 20.5087C15.9812 23.1193 18.1035 25.2416 20.7141 25.2416C23.3248 25.2416 25.4471 23.1193 25.4471 20.5087ZM20.7141 23.95C18.8155 23.95 17.2728 22.4073 17.2728 20.5087C17.2728 18.61 18.8155 17.0674 20.7141 17.0674C22.6128 17.0674 24.1554 18.61 24.1554 20.5087C24.1554 22.4073 22.6128 23.95 20.7141 23.95Z" fill="white"/>
<path d="M30.2987 25.3603C27.688 25.3603 25.5657 27.4825 25.5657 30.0932C25.5657 32.7038 27.688 34.8261 30.2987 34.8261C32.9093 34.8261 35.0316 32.7038 35.0316 30.0932C35.0316 27.4825 32.9093 25.3603 30.2987 25.3603ZM30.2987 33.5345C28.4 33.5345 26.8574 31.9918 26.8574 30.0932C26.8574 28.1945 28.4 26.6519 30.2987 26.6519C32.1973 26.6519 33.74 28.1945 33.74 30.0932C33.74 31.9918 32.1973 33.5345 30.2987 33.5345Z" fill="white"/>
<path d="M33.0462 17.7611C32.8043 17.5146 32.3753 17.5146 32.1334 17.7611L17.9711 31.9234C17.8479 32.0466 17.784 32.2063 17.784 32.3798C17.784 32.5532 17.8525 32.713 17.9711 32.8362C18.0944 32.9594 18.2632 33.0233 18.4275 33.0233C18.5918 33.0233 18.7607 32.9594 18.8839 32.8362L33.0462 18.6739C33.2972 18.4229 33.2972 18.0121 33.0462 17.7611Z" fill="white"/>
<path d="M44.4746 22.8683L43.5149 22.5872L43.5145 22.5889L44.4746 22.8683ZM44.8261 19.0253L45.7768 18.7154L45.7767 18.7151L44.8261 19.0253ZM42.2109 16.0404L41.6017 16.8335L41.6023 16.8339L42.2109 16.0404ZM40.4537 14.443L39.6447 15.0308L39.6483 15.0358L40.4537 14.443ZM39.4542 12.2523L38.5121 12.5878L38.513 12.5903L39.4542 12.2523ZM37.4414 8.87487L38.03 8.06643L38.0288 8.06555L37.4414 8.87487ZM33.6304 8.0077L33.5995 9.00722L33.5999 9.00724L33.6304 8.0077ZM31.2115 7.72929L30.9012 8.67994L30.9027 8.68042L31.2115 7.72929ZM29.1896 6.57915L28.6236 7.4036L28.6262 7.40538L29.1896 6.57915ZM21.8095 6.57915L22.3765 7.40288L22.3771 7.40248L21.8095 6.57915ZM19.7876 7.73386L20.0964 8.68498L20.0979 8.6845L19.7876 7.73386ZM17.3687 8.01226L17.3993 9.0118L17.3996 9.01179L17.3687 8.01226ZM13.5577 8.87944L12.9703 8.07011L12.9691 8.07099L13.5577 8.87944ZM11.5449 12.2568L12.4861 12.5948L12.487 12.5923L11.5449 12.2568ZM10.5454 14.4476L11.3539 15.0361L11.3544 15.0354L10.5454 14.4476ZM8.7928 16.045L9.40137 16.8385L9.402 16.838L8.7928 16.045ZM6.17303 19.0345L7.12378 19.3444L7.12401 19.3437L6.17303 19.0345ZM6.52902 22.882L7.4892 22.6026L7.48872 22.6009L6.52902 22.882ZM6.52902 27.7427L7.48872 28.0238L7.48919 28.0221L6.52902 27.7427ZM6.17303 31.5902L5.22092 31.896L5.22236 31.9004L6.17303 31.5902ZM8.78823 34.5751L9.39744 33.7821L9.39681 33.7816L8.78823 34.5751ZM10.5454 36.1725L11.3544 35.5847L11.3508 35.5798L10.5454 36.1725ZM11.5449 38.3633L12.4874 38.0289L12.4861 38.0253L11.5449 38.3633ZM13.5577 41.7452L12.9669 42.5521L12.9687 42.5534L13.5577 41.7452ZM17.3641 42.6124L17.395 41.6129L17.3947 41.6129L17.3641 42.6124ZM19.7831 42.8908L19.4724 43.8413L19.4728 43.8415L19.7831 42.8908ZM21.8049 44.0455L22.3725 43.2222L22.3719 43.2218L21.8049 44.0455ZM29.185 44.0501L28.618 43.2264L28.6175 43.2268L29.185 44.0501ZM31.2115 42.8954L30.9027 41.9443L30.9012 41.9447L31.2115 42.8954ZM33.6304 42.617L33.5998 41.6174L33.5995 41.6175L33.6304 42.617ZM37.4414 41.7498L38.0288 42.5591L38.03 42.5582L37.4414 41.7498ZM39.4542 38.3724L38.513 38.0344L38.5121 38.0369L39.4542 38.3724ZM40.4537 36.1771L39.6452 35.5885L39.6447 35.5893L40.4537 36.1771ZM42.2063 34.5797L41.5993 33.7849L41.5971 33.7866L42.2063 34.5797ZM44.8261 31.5902L43.8752 31.2806L43.8751 31.281L44.8261 31.5902ZM43.5983 31.1931L44.5489 31.5037L44.5496 31.5014L43.5983 31.1931ZM41.4258 33.5527L40.8168 32.7596L40.8164 32.7599L41.4258 33.5527ZM39.4131 35.4149L38.6046 34.8264L38.6041 34.827L39.4131 35.4149ZM38.2447 37.9342L39.1864 38.2708L39.1879 38.2666L38.2447 37.9342ZM36.6883 40.7001L36.103 39.8893L36.0993 39.892L36.6883 40.7001ZM33.5985 41.3208L33.6277 42.3204L33.6289 42.3203L33.5985 41.3208ZM30.819 41.6631L30.5117 40.7115L30.5074 40.7129L30.819 41.6631ZM28.4639 42.9821L27.8965 42.1586L27.0856 42.7174L27.6318 43.5368L28.4639 42.9821ZM28.5917 43.1738L27.7659 43.7378L29.4237 42.6191L28.5917 43.1738ZM28.4639 42.9867L29.2897 42.4227L28.7239 41.5942L27.8972 42.1627L28.4639 42.9867ZM22.558 42.9867L23.1264 42.1639L23.1254 42.1632L22.558 42.9867ZM20.1984 41.6676L19.8911 42.6193L19.893 42.6199L20.1984 41.6676ZM17.4189 41.3253L17.3885 42.3249L17.3898 42.3249L17.4189 41.3253ZM14.329 40.7046L14.918 39.8965L14.9175 39.8961L14.329 40.7046ZM12.7727 37.9342L11.83 38.2681L11.831 38.2708L12.7727 37.9342ZM11.6043 35.4194L10.794 36.0055L10.7953 36.0073L11.6043 35.4194ZM9.59151 33.5573L10.201 32.7645L10.2005 32.7641L9.59151 33.5573ZM7.41902 31.1977L6.46835 31.5079L6.46847 31.5083L7.41902 31.1977ZM7.78414 28.1169L8.74376 28.3983L8.74457 28.3955L7.78414 28.1169ZM7.7887 22.526L8.74914 22.2474L8.74862 22.2457L7.7887 22.526ZM7.42358 19.4407L6.47303 19.1301L6.47291 19.1305L7.42358 19.4407ZM9.59607 17.0811L10.2051 17.8742L10.2055 17.8739L9.59607 17.0811ZM11.6088 15.2189L12.4173 15.8074L12.4178 15.8068L11.6088 15.2189ZM12.7772 12.6996L11.8356 12.363L11.8346 12.3657L12.7772 12.6996ZM14.3336 9.92917L14.922 10.7377L14.9226 10.7373L14.3336 9.92917ZM17.4234 9.30846L17.3942 8.30888L17.393 8.30892L17.4234 9.30846ZM20.1984 8.96615L20.5071 9.9173L20.5099 9.91638L20.1984 8.96615ZM22.558 7.64714L23.1231 8.4722L23.1247 8.47107L22.558 7.64714ZM28.4639 7.6517L27.8955 8.47443L27.8965 8.47516L28.4639 7.6517ZM30.8235 8.97072L30.5135 9.92145L30.5162 9.92233L30.8235 8.97072ZM33.603 9.31302L33.6334 8.31348L33.6323 8.31345L33.603 9.31302ZM36.6929 9.93373L36.1039 10.7418L36.1044 10.7423L36.6929 9.93373ZM38.2492 12.7041L39.1919 12.3703L39.1909 12.3675L38.2492 12.7041ZM39.4176 15.2235L38.607 15.809L38.6098 15.8129L39.4176 15.2235ZM41.4304 17.0856L42.0394 16.2924L42.0367 16.2904L41.4304 17.0856ZM43.6029 19.4452L44.5536 19.135L44.5534 19.1347L43.6029 19.4452ZM43.2378 22.5305L42.2779 22.2502L42.2773 22.252L43.2378 22.5305ZM33.0462 17.7611L32.3325 18.4616L32.3391 18.4682L33.0462 17.7611ZM32.1334 17.7611L32.8405 18.4682L32.8471 18.4616L32.1334 17.7611ZM17.9711 31.9234L18.6782 32.6305L17.9711 31.9234ZM17.9711 32.8362L17.2508 33.5298L17.2573 33.5366L17.264 33.5433L17.9711 32.8362ZM18.8839 32.8362L19.591 33.5433L18.8839 32.8362ZM45.3705 27.2338C45.1389 26.4416 44.9863 25.8321 44.9863 25.3009H42.9863C42.9863 26.1572 43.2262 27.0265 43.4509 27.7951L45.3705 27.2338ZM44.9863 25.3009C44.9863 24.7143 45.1726 24.0487 45.4348 23.1477L43.5145 22.5889C43.2746 23.4131 42.9863 24.3723 42.9863 25.3009H44.9863ZM45.4343 23.1493C45.7886 21.9397 46.2958 20.3074 45.7768 18.7154L43.8753 19.3353C44.1687 20.2353 43.9092 21.241 43.5149 22.5872L45.4343 23.1493ZM45.7767 18.7151C45.2397 17.0693 43.844 16.0327 42.8194 15.2469L41.6023 16.8339C42.732 17.7004 43.5635 18.3799 43.8754 19.3356L45.7767 18.7151ZM42.8201 15.2474C42.0973 14.6922 41.5778 14.2834 41.2591 13.8503L39.6483 15.0358C40.1693 15.7437 40.946 16.3298 41.6017 16.8335L42.8201 15.2474ZM41.2627 13.8552C40.9395 13.4105 40.7068 12.7817 40.3953 11.9143L38.513 12.5903C38.7948 13.375 39.1189 14.3072 39.6447 15.0308L41.2627 13.8552ZM40.3962 11.9168C39.9673 10.7125 39.414 9.07403 38.03 8.06643L36.8528 9.68332C37.6505 10.264 38.0373 11.2545 38.5121 12.5878L40.3962 11.9168ZM38.0288 8.06555C36.6538 7.06771 34.9361 7.04707 33.6609 7.00817L33.5999 9.00724C35.0175 9.05048 36.0656 9.112 36.8541 9.6842L38.0288 8.06555ZM33.6613 7.00818C32.7326 6.97945 32.0597 6.95329 31.5203 6.77817L30.9027 8.68042C31.769 8.9617 32.7574 8.98118 33.5995 9.00722L33.6613 7.00818ZM31.5217 6.77865C31.0292 6.6179 30.4959 6.25953 29.7529 5.75292L28.6262 7.40538C29.289 7.85722 30.0792 8.41167 30.9012 8.67994L31.5217 6.77865ZM29.7555 5.7547C28.7372 5.05571 27.2588 3.99998 25.4973 3.99998V5.99998C26.529 5.99998 27.4877 6.62383 28.6237 7.4036L29.7555 5.7547ZM25.4973 3.99998C23.7353 3.99998 22.2574 5.05577 21.2419 5.75582L22.3771 7.40248C23.5067 6.62377 24.4661 5.99998 25.4973 5.99998V3.99998ZM21.2425 5.75542C20.5029 6.26453 19.9685 6.62291 19.4773 6.78321L20.0979 8.6845C20.9212 8.41578 21.7104 7.86135 22.3765 7.40288L21.2425 5.75542ZM19.4788 6.78273C18.9394 6.95785 18.2665 6.98402 17.3378 7.01274L17.3996 9.01179C18.2417 8.98574 19.2301 8.96626 20.0964 8.68498L19.4788 6.78273ZM17.3381 7.01273C16.0679 7.05162 14.3453 7.07222 12.9703 8.07011L14.145 9.68876C14.9334 9.11661 15.9858 9.05507 17.3993 9.0118L17.3381 7.01273ZM12.9691 8.07099C11.5851 9.07859 11.0318 10.717 10.6029 11.9214L12.487 12.5923C12.9618 11.259 13.3486 10.2686 14.1463 9.68788L12.9691 8.07099ZM10.6038 11.9189C10.2923 12.7863 10.0595 13.415 9.73639 13.8598L11.3544 15.0354C11.8802 14.3118 12.2043 13.3796 12.4861 12.5948L10.6038 11.9189ZM9.73694 13.859C9.42397 14.2889 8.90732 14.696 8.1836 15.252L9.402 16.838C10.0566 16.3351 10.8362 15.7473 11.3539 15.0361L9.73694 13.859ZM8.18423 15.2515C7.16124 16.0361 5.75913 17.0735 5.22204 18.7252L7.12401 19.3437C7.43584 18.3848 8.27012 17.7061 9.40137 16.8385L8.18423 15.2515ZM5.22227 18.7245C4.70296 20.3175 5.21596 21.9564 5.56933 23.163L7.48872 22.6009C7.09358 21.2517 6.83069 20.2434 7.12378 19.3444L5.22227 18.7245ZM5.56885 23.1614C5.83122 24.063 6.01738 24.7282 6.01738 25.3101H8.01738C8.01738 24.3858 7.72887 23.4262 7.48919 22.6026L5.56885 23.1614ZM6.01738 25.3101C6.01738 25.8923 5.83088 26.5629 5.56885 27.4633L7.48919 28.0221C7.72922 27.1973 8.01738 26.234 8.01738 25.3101H6.01738ZM5.56933 27.4616C5.21473 28.6725 4.70892 30.3018 5.22093 31.896L7.12513 31.2844C6.83386 30.3775 7.09481 29.3688 7.48872 28.0237L5.56933 27.4616ZM5.22236 31.9004C5.75941 33.5462 7.15512 34.5828 8.17966 35.3686L9.39681 33.7816C8.26712 32.9152 7.43555 32.2357 7.12369 31.28L5.22236 31.9004ZM8.17903 35.3681C8.90178 35.9233 9.42125 36.3322 9.74002 36.7653L11.3508 35.5798C10.8298 34.8719 10.053 34.2857 9.39744 33.7821L8.17903 35.3681ZM9.73639 36.7603C10.0595 37.2051 10.2923 37.8338 10.6038 38.7013L12.4861 38.0253C12.2043 37.2405 11.8802 36.3084 11.3544 35.5847L9.73639 36.7603ZM10.6025 38.6977C11.0326 39.9097 11.5851 41.5403 12.9669 42.5521L14.1485 40.9384C13.3486 40.3527 12.961 39.3636 12.4874 38.0289L10.6025 38.6977ZM12.9687 42.5534C14.3399 43.5527 16.0643 43.5731 17.3335 43.6119L17.3947 41.6129C15.9802 41.5696 14.9297 41.5078 14.1467 40.9371L12.9687 42.5534ZM17.3332 43.6119C18.2634 43.6407 18.9389 43.667 19.4724 43.8413L20.0937 41.9403C19.2306 41.6582 18.2357 41.6389 17.395 41.6129L17.3332 43.6119ZM19.4728 43.8415C19.9639 44.0018 20.4983 44.3601 21.238 44.8693L22.3719 43.2218C21.7058 42.7633 20.9167 42.2089 20.0933 41.9402L19.4728 43.8415ZM21.2374 44.8688C22.2535 45.5693 23.7309 46.6247 25.4973 46.6247V44.6247C24.4612 44.6247 23.5015 44.0005 22.3725 43.2222L21.2374 44.8688ZM25.4973 46.6247C27.2631 46.6247 28.7352 45.5748 29.7526 44.8734L28.6175 43.2268C27.4898 44.0041 26.5338 44.6247 25.4973 44.6247V46.6247ZM29.752 44.8738C30.4891 44.3665 31.0298 44.0066 31.5217 43.846L30.9012 41.9447C30.0787 42.2132 29.2867 42.7661 28.618 43.2264L29.752 44.8738ZM31.5203 43.8465C32.0597 43.6714 32.7326 43.6452 33.6613 43.6165L33.5995 41.6175C32.7574 41.6435 31.769 41.663 30.9027 41.9443L31.5203 43.8465ZM33.661 43.6165C34.9312 43.5776 36.6538 43.557 38.0288 42.5591L36.8541 40.9405C36.0657 41.5126 35.0133 41.5742 33.5998 41.6174L33.661 43.6165ZM38.03 42.5582C39.414 41.5506 39.9673 39.9122 40.3962 38.7079L38.5121 38.0369C38.0373 39.3702 37.6505 40.3607 36.8528 40.9414L38.03 42.5582ZM40.3953 38.7104C40.7076 37.8408 40.9399 37.2091 41.2627 36.7649L39.6447 35.5893C39.1185 36.3134 38.794 37.2518 38.513 38.0344L40.3953 38.7104ZM41.2621 36.7656C41.5751 36.3357 42.0918 35.9286 42.8155 35.3727L41.5971 33.7866C40.9425 34.2895 40.1629 34.8774 39.6452 35.5885L41.2621 36.7656ZM42.8132 35.3744C43.844 34.5872 45.24 33.5509 45.777 31.8994L43.8751 31.281C43.5632 32.2401 42.7319 32.92 41.5993 33.7849L42.8132 35.3744ZM45.7769 31.8998C46.2692 30.3879 45.8341 28.8564 45.4998 27.6907L43.5773 28.242C43.9367 29.4952 44.1497 30.4374 43.8752 31.2806L45.7769 31.8998ZM42.3364 28.6044C42.4906 29.1384 42.6131 29.5893 42.6721 29.9948C42.7307 30.3976 42.7138 30.6788 42.647 30.8849L44.5496 31.5014C44.7476 30.8905 44.7329 30.268 44.6512 29.7067C44.5699 29.148 44.4094 28.5743 44.2578 28.0494L42.3364 28.6044ZM42.6478 30.8826C42.5659 31.133 42.3837 31.4062 42.0558 31.7317C41.7242 32.0608 41.3101 32.3809 40.8168 32.7596L42.0348 34.3459C42.5046 33.9852 43.0261 33.5865 43.4647 33.1511C43.907 32.7121 44.3295 32.1752 44.5489 31.5037L42.6478 30.8826ZM40.8164 32.7599C40.1129 33.3007 39.23 33.9671 38.6046 34.8264L40.2216 36.0034C40.6459 35.4204 41.2782 34.9276 42.0353 34.3456L40.8164 32.7599ZM38.6041 34.827C37.9702 35.6994 37.6036 36.7447 37.3015 37.6019L39.1879 38.2666C39.5065 37.3621 39.788 36.6 40.222 36.0028L38.6041 34.827ZM37.303 37.5977C37.0943 38.1817 36.919 38.6708 36.7105 39.0843C36.5041 39.4937 36.3058 39.7429 36.103 39.8893L37.2737 41.5109C37.8422 41.1004 38.219 40.5349 38.4964 39.9847C38.7717 39.4386 38.9889 38.8233 39.1863 38.2708L37.303 37.5977ZM36.0993 39.892C35.9027 40.0353 35.6081 40.1458 35.1566 40.2156C34.7016 40.2859 34.1842 40.3025 33.5681 40.3212L33.6289 42.3203C34.2131 42.3025 34.8618 42.2849 35.4622 42.1921C36.0662 42.0987 36.7164 41.9171 37.2774 41.5082L36.0993 39.892ZM33.5692 40.3212C32.6589 40.3478 31.5463 40.3774 30.5117 40.7115L31.1262 42.6147C31.8442 42.3829 32.6668 42.3485 33.6277 42.3204L33.5692 40.3212ZM30.5074 40.7129C29.511 41.0395 28.6209 41.6595 27.8965 42.1586L29.0313 43.8055C29.8039 43.2732 30.4565 42.8343 31.1305 42.6133L30.5074 40.7129ZM27.6318 43.5368L27.7596 43.7285L29.4237 42.6191L29.296 42.4274L27.6318 43.5368ZM29.4175 42.6098L29.2897 42.4227L27.6381 43.5506L27.7659 43.7378L29.4175 42.6098ZM27.8972 42.1627C27.3792 42.519 26.9448 42.8169 26.5247 43.0331C26.1108 43.2461 25.7875 43.3376 25.511 43.3376V45.3376C26.2294 45.3376 26.8782 45.1005 27.4399 44.8115C27.9954 44.5256 28.5399 44.1481 29.0306 43.8106L27.8972 42.1627ZM25.511 43.3376C25.2341 43.3376 24.9094 43.2459 24.4951 43.0329C24.0752 42.8171 23.6405 42.5191 23.1264 42.1639L21.9896 43.8094C22.4796 44.148 23.0239 44.5255 23.5807 44.8117C24.1431 45.1007 24.7929 45.3376 25.511 45.3376V43.3376ZM23.1254 42.1632C22.405 41.6668 21.51 41.0381 20.5037 40.7154L19.893 42.6199C20.5663 42.8358 21.214 43.275 21.9906 43.8101L23.1254 42.1632ZM20.5057 40.716C19.4711 40.3819 18.3633 40.3524 17.448 40.3258L17.3898 42.3249C18.3549 42.353 19.1731 42.3874 19.8911 42.6193L20.5057 40.716ZM17.4493 40.3258C16.8332 40.3071 16.3157 40.2905 15.8607 40.2201C15.4093 40.1503 15.1147 40.0398 14.918 39.8965L13.74 41.5127C14.301 41.9217 14.9511 42.1033 15.5551 42.1966C16.1556 42.2895 16.8042 42.3071 17.3885 42.3249L17.4493 40.3258ZM14.9175 39.8961C14.7127 39.7471 14.5135 39.4954 14.3071 39.0853C14.0984 38.671 13.923 38.1816 13.7143 37.5977L11.831 38.2708C12.0285 38.8233 12.2456 39.4384 12.5208 39.9848C12.7981 40.5355 13.174 41.1008 13.7405 41.5132L14.9175 39.8961ZM13.7153 37.6004C13.4137 36.7489 13.0469 35.7035 12.4132 34.8316L10.7953 36.0073C11.2296 36.605 11.5109 37.367 11.83 38.2681L13.7153 37.6004ZM12.4145 34.8334C11.7878 33.9669 10.9014 33.303 10.201 32.7645L8.98204 34.3501C9.74208 34.9344 10.3709 35.4206 10.794 36.0055L12.4145 34.8334ZM10.2005 32.7641C9.70728 32.3854 9.29312 32.0653 8.96157 31.7362C8.63365 31.4107 8.4514 31.1376 8.36956 30.8871L6.46847 31.5083C6.68786 32.1797 7.11035 32.7167 7.55262 33.1557C7.99124 33.5911 8.51273 33.9898 8.98253 34.3505L10.2005 32.7641ZM8.36968 30.8875C8.29877 30.6702 8.2845 30.3655 8.35741 29.9197C8.4306 29.4722 8.57307 28.9805 8.74375 28.3983L6.82453 27.8356C6.66203 28.3899 6.48046 29.0049 6.38364 29.5969C6.28653 30.1906 6.25629 30.858 6.46835 31.5079L8.36968 30.8875ZM8.74457 28.3955C8.99989 27.5151 9.32726 26.4326 9.32726 25.3192H7.32726C7.32726 26.0953 7.09783 26.8932 6.82371 27.8384L8.74457 28.3955ZM9.32726 25.3192C9.32726 24.2069 9.00549 23.1314 8.74913 22.2474L6.82828 22.8045C7.10135 23.7461 7.32726 24.5419 7.32726 25.3192H9.32726ZM8.74862 22.2457C8.57781 21.6607 8.43526 21.1678 8.362 20.7194C8.28905 20.2728 8.30335 19.9682 8.37425 19.7509L6.47291 19.1305C6.26084 19.7804 6.29112 20.4478 6.38817 21.0419C6.48492 21.6341 6.66642 22.2502 6.82879 22.8063L8.74862 22.2457ZM8.37413 19.7512C8.45597 19.5008 8.63822 19.2276 8.96613 18.9021C9.29769 18.573 9.71184 18.2529 10.2051 17.8742L8.98709 16.2879C8.51729 16.6486 7.99581 17.0473 7.55718 17.4827C7.11491 17.9217 6.69242 18.4586 6.47303 19.1301L8.37413 19.7512ZM10.2055 17.8739C10.909 17.3331 11.7919 16.6667 12.4173 15.8074L10.8003 14.6304C10.376 15.2134 9.74369 15.7062 8.9866 16.2882L10.2055 17.8739ZM12.4178 15.8068C13.0518 14.9343 13.419 13.883 13.7199 13.0334L11.8346 12.3657C11.5148 13.2687 11.2338 14.0339 10.7999 14.631L12.4178 15.8068ZM13.7189 13.0361C13.9276 12.4522 14.103 11.9628 14.3116 11.5485C14.5181 11.1384 14.7172 10.8867 14.922 10.7377L13.7451 9.12064C13.1786 9.53297 12.8026 10.0983 12.5253 10.649C12.2502 11.1954 12.0331 11.8105 11.8356 12.363L13.7189 13.0361ZM14.9226 10.7373C15.1192 10.594 15.4138 10.4835 15.8653 10.4137C16.3203 10.3433 16.8377 10.3267 17.4538 10.308L17.393 8.30892C16.8088 8.32669 16.1601 8.34433 15.5597 8.43715C14.9557 8.53053 14.3055 8.71213 13.7445 9.12107L14.9226 10.7373ZM17.4527 10.308C18.3623 10.2814 19.4761 10.252 20.5071 9.9173L19.8896 8.01501C19.1772 8.24626 18.3558 8.28074 17.3942 8.30889L17.4527 10.308ZM20.5099 9.91638C21.5057 9.58992 22.3964 8.96984 23.123 8.4722L21.993 6.82208C21.2135 7.35591 20.5616 7.7947 19.8868 8.01592L20.5099 9.91638ZM23.1247 8.47107C23.6406 8.11623 24.0768 7.81897 24.4968 7.60402C24.9116 7.39178 25.2356 7.30074 25.511 7.30074V5.30074C24.7959 5.30074 24.1477 5.53603 23.5858 5.82356C23.0292 6.10838 22.484 6.48432 21.9913 6.82321L23.1247 8.47107ZM25.511 7.30074C25.7852 7.30074 26.1098 7.39222 26.5256 7.60567C26.946 7.82156 27.3823 8.11989 27.8955 8.47443L29.0323 6.82897C28.5414 6.48978 27.9964 6.11263 27.439 5.82647C26.8769 5.53788 26.2271 5.30074 25.511 5.30074V7.30074ZM27.8965 8.47516C28.6212 8.97449 29.5117 9.59477 30.5135 9.92145L31.1335 8.01999C30.4558 7.79898 29.8036 7.3604 29.0313 6.82825L27.8965 8.47516ZM30.5162 9.92233C31.5509 10.2564 32.6635 10.286 33.5738 10.3126L33.6323 8.31345C32.6713 8.28532 31.8487 8.25093 31.1308 8.0191L30.5162 9.92233ZM33.5726 10.3126C34.1887 10.3313 34.7062 10.3479 35.1612 10.4182C35.6126 10.488 35.9072 10.5985 36.1039 10.7418L37.2819 9.12563C36.7209 8.71669 36.0708 8.53509 35.4668 8.44172C34.8663 8.34889 34.2177 8.33126 33.6334 8.31348L33.5726 10.3126ZM36.1044 10.7423C36.3092 10.8913 36.5084 11.143 36.7148 11.553C36.9235 11.9674 37.0989 12.4568 37.3076 13.0407L39.1909 12.3675C38.9934 11.815 38.7763 11.1999 38.5011 10.6535C38.2238 10.1028 37.8479 9.53754 37.2814 9.1252L36.1044 10.7423ZM37.3066 13.038C37.6084 13.8902 37.9748 14.9337 38.607 15.809L40.2283 14.638C39.7925 14.0345 39.5108 13.2707 39.1919 12.3703L37.3066 13.038ZM38.6098 15.8129C39.2394 16.6758 40.1144 17.3397 40.8241 17.8808L42.0367 16.2904C41.2859 15.7179 40.6548 15.2225 40.2255 14.6341L38.6098 15.8129ZM40.8214 17.8788C41.3146 18.2575 41.7288 18.5776 42.0603 18.9067C42.3883 19.2322 42.5705 19.5053 42.6523 19.7558L44.5534 19.1347C44.334 18.4632 43.9116 17.9262 43.4693 17.4872C43.0307 17.0519 42.5092 16.6531 42.0394 16.2924L40.8214 17.8788ZM42.6522 19.7555C42.7231 19.9727 42.7374 20.2774 42.6645 20.724C42.5912 21.1724 42.4487 21.6653 42.2779 22.2502L44.1977 22.8108C44.3601 22.2548 44.5415 21.6386 44.6383 21.0464C44.7354 20.4524 44.7656 19.7849 44.5536 19.135L42.6522 19.7555ZM42.2773 22.252C42.0222 23.1319 41.6946 24.2147 41.6946 25.3237H43.6946C43.6946 24.5523 43.9239 23.7548 44.1982 22.8091L42.2773 22.252ZM41.6946 25.3237C41.6946 26.3457 41.9692 27.3396 42.2084 28.1701L44.1302 27.6165C43.8857 26.7675 43.6946 26.027 43.6946 25.3237H41.6946ZM26.4471 20.5087C26.4471 17.3457 23.8771 14.7757 20.7141 14.7757V16.7757C22.7725 16.7757 24.4471 18.4503 24.4471 20.5087H26.4471ZM20.7141 14.7757C17.5512 14.7757 14.9812 17.3457 14.9812 20.5087H16.9812C16.9812 18.4503 18.6558 16.7757 20.7141 16.7757V14.7757ZM14.9812 20.5087C14.9812 23.6716 17.5512 26.2416 20.7141 26.2416V24.2416C18.6558 24.2416 16.9812 22.567 16.9812 20.5087H14.9812ZM20.7141 26.2416C23.8771 26.2416 26.4471 23.6716 26.4471 20.5087H24.4471C24.4471 22.567 22.7725 24.2416 20.7141 24.2416V26.2416ZM20.7141 22.95C19.3678 22.95 18.2728 21.855 18.2728 20.5087H16.2728C16.2728 22.9596 18.2632 24.95 20.7141 24.95V22.95ZM18.2728 20.5087C18.2728 19.1623 19.3678 18.0674 20.7141 18.0674V16.0674C18.2632 16.0674 16.2728 18.0577 16.2728 20.5087H18.2728ZM20.7141 18.0674C22.0605 18.0674 23.1554 19.1623 23.1554 20.5087H25.1554C25.1554 18.0577 23.1651 16.0674 20.7141 16.0674V18.0674ZM23.1554 20.5087C23.1554 21.855 22.0605 22.95 20.7141 22.95V24.95C23.1651 24.95 25.1554 22.9596 25.1554 20.5087H23.1554ZM30.2987 24.3603C27.1357 24.3603 24.5657 26.9303 24.5657 30.0932H26.5657C26.5657 28.0348 28.2403 26.3603 30.2987 26.3603V24.3603ZM24.5657 30.0932C24.5657 33.2561 27.1357 35.8261 30.2987 35.8261V33.8261C28.2403 33.8261 26.5657 32.1515 26.5657 30.0932H24.5657ZM30.2987 35.8261C33.4616 35.8261 36.0316 33.2561 36.0316 30.0932H34.0316C34.0316 32.1515 32.357 33.8261 30.2987 33.8261V35.8261ZM36.0316 30.0932C36.0316 26.9303 33.4616 24.3603 30.2987 24.3603V26.3603C32.357 26.3603 34.0316 28.0348 34.0316 30.0932H36.0316ZM30.2987 32.5345C28.9523 32.5345 27.8574 31.4396 27.8574 30.0932H25.8574C25.8574 32.5441 27.8477 34.5345 30.2987 34.5345V32.5345ZM27.8574 30.0932C27.8574 28.7468 28.9523 27.6519 30.2987 27.6519V25.6519C27.8477 25.6519 25.8574 27.6423 25.8574 30.0932H27.8574ZM30.2987 27.6519C31.645 27.6519 32.74 28.7468 32.74 30.0932H34.74C34.74 27.6423 32.7496 25.6519 30.2987 25.6519V27.6519ZM32.74 30.0932C32.74 31.4396 31.645 32.5345 30.2987 32.5345V34.5345C32.7496 34.5345 34.74 32.5441 34.74 30.0932H32.74ZM33.7599 17.0606C33.126 16.4148 32.0536 16.4148 31.4197 17.0606L32.8471 18.4616C32.759 18.5513 32.659 18.5763 32.5898 18.5763C32.5206 18.5763 32.4206 18.5513 32.3325 18.4616L33.7599 17.0606ZM31.4263 17.054L17.264 31.2163L18.6782 32.6305L32.8405 18.4682L31.4263 17.054ZM17.264 31.2163C16.9474 31.5329 16.784 31.9496 16.784 32.3798H18.784C18.784 32.4169 18.7769 32.4623 18.7574 32.51C18.7378 32.5582 18.7095 32.5992 18.6782 32.6305L17.264 31.2163ZM16.784 32.3798C16.784 32.826 16.9627 33.2307 17.2508 33.5298L18.6914 32.1425C18.7422 32.1952 18.784 32.2804 18.784 32.3798H16.784ZM17.264 33.5433C17.5858 33.8651 18.014 34.0233 18.4275 34.0233V32.0233C18.5125 32.0233 18.6029 32.0538 18.6782 32.1291L17.264 33.5433ZM18.4275 34.0233C18.8411 34.0233 19.2693 33.8651 19.591 33.5433L18.1768 32.1291C18.2521 32.0538 18.3426 32.0233 18.4275 32.0233V34.0233ZM19.591 33.5433L33.7533 19.381L32.3391 17.9668L18.1768 32.1291L19.591 33.5433ZM33.7533 19.381C34.3949 18.7395 34.3949 17.6955 33.7533 17.054L32.3391 18.4682C32.1996 18.3287 32.1996 18.1063 32.3391 17.9668L33.7533 19.381Z" fill="white" mask="url(#path-1-inside-1_4382_78)"/>
</svg>
