<svg width="20" height="21" viewBox="0 0 20 21" fill="none" xmlns="http://www.w3.org/2000/svg">
<path d="M9.99497 2.3233C12.6724 2.3233 13.0146 2.3233 14.0211 2.38253C14.6547 2.38681 15.2822 2.50386 15.8732 2.728C16.3204 2.88865 16.7235 3.14881 17.0508 3.48803C17.3811 3.81587 17.6351 4.20981 17.7957 4.64289C18.0032 5.22363 18.112 5.83387 18.1178 6.44921C18.1681 7.50536 18.1782 7.82122 18.1782 10.4863C18.1782 13.1513 18.1782 13.4475 18.1178 14.5135C18.1098 15.1464 17.9942 15.7736 17.7755 16.3692C17.6175 16.8017 17.3681 17.1968 17.0438 17.5284C16.7195 17.8601 16.3274 18.1209 15.8933 18.2939C15.3009 18.513 14.6743 18.6299 14.0413 18.6394C13.0347 18.6394 12.6724 18.6887 10.0151 18.6887C7.35782 18.6887 6.99547 18.6887 5.98893 18.6394C5.34571 18.6333 4.7086 18.5164 4.10669 18.2939C3.67183 18.1265 3.27773 17.8712 2.94999 17.5447C2.62225 17.2182 2.3682 16.8278 2.20433 16.3988C1.98074 15.8045 1.86491 15.1765 1.8621 14.5431C1.81178 13.4968 1.80171 13.181 1.80171 10.5159C1.80171 7.85083 1.80171 7.55472 1.8621 6.47882C1.86463 5.84861 1.98048 5.22377 2.20433 4.63302C2.36615 4.20347 2.62016 3.813 2.94917 3.48803C3.27285 3.15847 3.66865 2.90534 4.10669 2.74774C4.69763 2.5236 5.32515 2.40655 5.95873 2.40227C6.96527 2.40227 7.32763 2.34304 9.9849 2.34304M9.9849 0.546597C7.2773 0.546597 6.96527 0.546597 5.86814 0.60582C5.03837 0.622526 4.21775 0.779466 3.44238 1.06974C2.77596 1.314 2.174 1.70192 1.68093 2.20486C1.16753 2.70335 0.772333 3.30657 0.523402 3.97169C0.235625 4.74764 0.0792229 5.56452 0.0603925 6.38999C-5.62449e-08 7.43627 0 7.79161 0 10.506C0 13.2204 -5.62449e-08 13.556 0.0603925 14.6122C0.0793876 15.4409 0.235768 16.261 0.523402 17.0404C0.775519 17.7039 1.1703 18.3065 1.68093 18.8072C2.17519 19.3157 2.78099 19.7073 3.45244 19.9522C4.22642 20.2472 5.04791 20.4043 5.87821 20.4161C6.94514 20.4655 7.28737 20.4852 9.99497 20.4852C12.7026 20.4852 13.0146 20.4852 14.1218 20.4161C14.9521 20.4043 15.7736 20.2472 16.5476 19.9522C17.2177 19.7048 17.823 19.3136 18.3191 18.8072C18.8268 18.3042 19.2212 17.7023 19.4766 17.0404C19.7642 16.261 19.9206 15.4409 19.9396 14.6122C19.9899 13.556 20 13.2106 20 10.506C20 7.80148 20 7.45601 19.9396 6.38999C19.9208 5.56452 19.7644 4.74764 19.4766 3.97169C19.2245 3.30813 18.8297 2.70555 18.3191 2.20486C17.8234 1.69562 17.2182 1.3011 16.5476 1.05C15.7627 0.756364 14.9315 0.599368 14.0916 0.586079C13.0851 0.526855 12.7126 0.526855 9.99497 0.526855" fill="white"/>
<path d="M9.99513 5.38345C8.95713 5.35991 7.93551 5.64023 7.06069 6.18863C6.18588 6.73704 5.49755 7.52864 5.08358 8.4624C4.6696 9.39616 4.54876 10.4297 4.73648 11.4311C4.9242 12.4325 5.41196 13.3564 6.13751 14.0847C6.86305 14.813 7.79346 15.3128 8.80996 15.5203C9.82647 15.7278 10.883 15.6335 11.8446 15.2494C12.8062 14.8654 13.6293 14.2091 14.2088 13.3643C14.7884 12.5195 15.098 11.5245 15.0983 10.5063C15.1036 9.83873 14.9748 9.17668 14.7192 8.55794C14.4636 7.93921 14.0862 7.37591 13.6086 6.9002C13.1309 6.4245 12.5624 6.04571 11.9355 5.78547C11.3086 5.52522 10.6356 5.38861 9.95487 5.38345M9.95487 13.8327C9.28194 13.8425 8.62124 13.6557 8.05684 13.2962C7.49244 12.9367 7.04985 12.4207 6.78538 11.8138C6.52091 11.2069 6.44651 10.5366 6.57165 9.88812C6.6968 9.23965 7.01583 8.64234 7.48815 8.17219C7.96047 7.70203 8.56473 7.38029 9.22406 7.24789C9.88339 7.11549 10.568 7.17841 11.1907 7.42867C11.8135 7.67892 12.3463 8.10518 12.7212 8.65322C13.0962 9.20126 13.2965 9.8463 13.2966 10.5063C13.302 11.3816 12.9532 12.2232 12.3268 12.8468C11.7004 13.4703 10.8474 13.8249 9.95487 13.8327Z" fill="white"/>
<path d="M16.5368 5.17577C16.5348 5.40999 16.462 5.63837 16.3276 5.83203C16.1932 6.02569 16.0033 6.17593 15.7818 6.26375C15.5604 6.35158 15.3173 6.37304 15.0834 6.32543C14.8495 6.27782 14.6353 6.16328 14.4678 5.99628C14.3003 5.82928 14.187 5.61733 14.1424 5.38723C14.0977 5.15713 14.1237 4.91921 14.2169 4.70357C14.3102 4.48792 14.4665 4.30423 14.6663 4.17573C14.866 4.04722 15.1001 3.97966 15.339 3.98161C15.4976 3.9829 15.6544 4.01481 15.8004 4.07552C15.9465 4.13624 16.0789 4.22456 16.1901 4.33545C16.3013 4.44634 16.3892 4.57762 16.4487 4.7218C16.5082 4.86599 16.5381 5.02025 16.5368 5.17577Z" fill="white"/>
</svg>
