<svg width="22" height="22" viewBox="0 0 22 22" fill="none" xmlns="http://www.w3.org/2000/svg">
<path fill-rule="evenodd" clip-rule="evenodd" d="M6.21785 2.84894C6.13194 2.76303 5.99264 2.76303 5.90673 2.84894L5.46482 3.29085C3.83908 4.91659 3.65617 7.49036 5.03566 9.32968L7.00654 11.9575C8.11975 13.4418 9.43827 14.7603 10.9225 15.8735L13.5504 17.8444C15.3897 19.2239 17.9635 19.041 19.5892 17.4152L20.0311 16.9733C20.117 16.8874 20.117 16.7481 20.0311 16.6622L16.9734 13.6045C16.8875 13.5186 16.7482 13.5186 16.6623 13.6045L15.4257 14.8411C15.0503 15.2165 14.4767 15.3096 14.0019 15.0721C11.3215 13.732 9.14811 11.5586 7.80793 8.8782C7.57049 8.40332 7.66356 7.82979 8.03899 7.45437L9.27557 6.21778C9.36148 6.13187 9.36148 5.99257 9.27557 5.90666L6.21785 2.84894ZM4.97335 1.91556C5.57475 1.31416 6.54983 1.31416 7.15123 1.91556L10.2089 4.97328C10.8104 5.57468 10.8104 6.54976 10.2089 7.15117L9.01658 8.34354C10.2218 10.7243 12.1557 12.6583 14.5365 13.8635L15.7289 12.6711C16.3303 12.0697 17.3054 12.0697 17.9068 12.6711L20.9645 15.7288C21.5659 16.3302 21.5659 17.3053 20.9645 17.9067L20.5226 18.3486C18.4324 20.4389 15.1232 20.674 12.7584 18.9004L10.1305 16.9295C8.54621 15.7413 7.1388 14.3339 5.95054 12.7495L3.97966 10.1217C2.20603 7.75684 2.4412 4.4477 4.53144 2.35747L4.97335 1.91556Z" fill="#D89D81"/>
</svg>
