<svg width="22" height="21" viewBox="0 0 22 21" fill="none" xmlns="http://www.w3.org/2000/svg">
<path fill-rule="evenodd" clip-rule="evenodd" d="M4.53302 2.10795C4.4393 2.01423 4.28734 2.01422 4.19361 2.10795L3.71154 2.59003C1.938 4.36356 1.73846 7.17132 3.24336 9.17784L5.39341 12.0446C6.60782 13.6638 8.0462 15.1022 9.66541 16.3166L12.5322 18.4666C14.5387 19.9715 17.3464 19.772 19.12 17.9985L19.602 17.5164C19.6958 17.4227 19.6958 17.2707 19.602 17.177L16.2664 13.8413C16.1726 13.7476 16.0207 13.7476 15.9269 13.8413L14.5779 15.1903C14.1684 15.5998 13.5427 15.7014 13.0247 15.4423C10.1006 13.9803 7.72967 11.6094 6.26765 8.68532C6.00863 8.16727 6.11016 7.5416 6.51971 7.13205L7.86871 5.78305C7.96244 5.68932 7.96244 5.53737 7.86871 5.44364L4.53302 2.10795ZM3.17538 1.08972C3.83146 0.433637 4.89517 0.433635 5.55126 1.08972L8.88694 4.42541C9.54303 5.08149 9.54303 6.1452 8.88695 6.80128L7.58618 8.10205C8.90098 10.6993 11.0107 12.809 13.6079 14.1238L14.9087 12.8231C15.5648 12.167 16.6285 12.167 17.2846 12.823L20.6203 16.1587C21.2764 16.8148 21.2764 17.8785 20.6203 18.5346L20.1382 19.0167C17.8579 21.297 14.248 21.5535 11.6682 19.6186L8.80141 17.4686C7.07304 16.1723 5.53769 14.637 4.24141 12.9086L2.09136 10.0418C0.156492 7.46202 0.413043 3.85205 2.6933 1.57179L3.17538 1.08972Z" fill="white"/>
</svg>
