<svg width="19" height="16" viewBox="0 0 19 16" fill="none" xmlns="http://www.w3.org/2000/svg">
<path d="M0 13.9128C1.72781 15.0181 3.746 15.6078 5.80936 15.6104C12.8533 15.6104 16.8251 9.68288 16.5859 4.35565C17.3402 3.82167 17.9888 3.15741 18.5 2.39546C17.807 2.70052 17.0716 2.90282 16.3179 2.99571C17.1055 2.51733 17.6927 1.77889 17.9736 0.91359C17.23 1.35841 16.4143 1.6756 15.5618 1.85148C15.2141 1.4723 14.7892 1.16872 14.3145 0.960334C13.8397 0.751946 13.3257 0.643368 12.8055 0.641602C12.2285 0.645554 11.6599 0.777273 11.1421 1.02691C10.6244 1.27655 10.1709 1.63765 9.81568 2.08321C9.46041 2.52878 9.21251 3.04728 9.09052 3.59995C8.96854 4.15262 8.97562 4.72517 9.11123 5.27479C7.60121 5.19568 6.12564 4.8027 4.78247 4.12193C3.43931 3.44116 2.25929 2.48818 1.32074 1.32626C0.832687 2.15463 0.67891 3.1321 0.889714 4.06605C1.10052 5.00001 1.66062 5.82274 2.45965 6.37212C1.85821 6.35449 1.27021 6.19354 0.746508 5.90317C0.727143 6.7769 1.01965 7.62983 1.57355 8.31475C2.12744 8.99968 2.90797 9.47361 3.78039 9.65474C3.22592 9.80895 2.64194 9.83146 2.07682 9.72039C2.31526 10.4645 2.78445 11.1174 3.41912 11.588C4.05379 12.0587 4.82237 12.3238 5.61795 12.3465C4.83458 12.9601 3.93433 13.4146 2.96977 13.6835C2.0052 13.9524 0.995638 14.0304 0 13.9128Z" fill="white"/>
</svg>
