<svg width="50" height="50" viewBox="0 0 50 50" fill="none" xmlns="http://www.w3.org/2000/svg">
<mask id="path-1-inside-1_4382_49" fill="white">
<path fill-rule="evenodd" clip-rule="evenodd" d="M20.1842 13.8557C16.7641 13.8581 13.9715 17.1109 13.9715 21.4871C13.9715 23.2126 14.7928 24.8307 15.5844 26.3903L15.6159 26.4523L15.7775 26.7757L15.7779 26.7764C17.1527 29.5029 18.2011 31.949 19.0358 33.8967L19.037 33.8994C19.8191 35.7204 20.4493 37.1827 21.0531 38.1938C21.3543 38.6982 21.632 39.0604 21.8957 39.2928C22.1535 39.5202 22.3736 39.6031 22.5772 39.6031C22.8169 39.6031 22.9363 39.5781 23.0116 39.5382C23.0677 39.5085 23.1503 39.4434 23.2352 39.2258C23.3246 38.9964 23.401 38.6357 23.4526 38.0679C23.5036 37.5055 23.5282 36.7676 23.5282 35.799C23.5282 33.7945 23.5888 32.2938 23.8801 31.2913C24.0283 30.7815 24.2495 30.3495 24.5981 30.0469C24.9566 29.7357 25.3981 29.6057 25.8942 29.6057C26.3903 29.6057 26.8318 29.7357 27.1903 30.0469C27.5389 30.3495 27.7602 30.7815 27.9083 31.2913C28.1997 32.2938 28.2602 33.7945 28.2602 35.799C28.2602 36.7676 28.2848 37.5055 28.3358 38.0679C28.3874 38.6357 28.4638 38.9964 28.5532 39.2258C28.6381 39.4434 28.7207 39.5085 28.7768 39.5382C28.8521 39.5781 28.9715 39.6031 29.2112 39.6031C29.4229 39.6031 29.6478 39.5183 29.9074 39.2914C30.1731 39.0592 30.4519 38.6975 30.7527 38.1938C31.3559 37.1838 31.9803 35.7222 32.7505 33.9017C33.586 31.929 34.6349 29.4812 36.0108 26.7758C36.0111 26.7753 36.0114 26.7747 36.0116 26.7742L36.1726 26.4523L36.1751 26.4473C36.9742 24.8962 37.8169 23.2574 37.8169 21.4871C37.8169 17.1331 35.0235 13.858 31.6041 13.8557C30.2445 13.878 28.9464 14.3312 27.8614 15.1115C27.8061 15.1525 27.5751 15.3163 27.3164 15.4958C27.8492 15.5921 28.3947 15.6338 28.9434 15.6187C29.1995 15.6117 29.4128 15.8137 29.4198 16.0698C29.4268 16.3259 29.2249 16.5392 28.9688 16.5462C27.9797 16.5733 26.9968 16.4354 26.0661 16.1397C26.0421 16.1341 26.0186 16.1265 25.996 16.1171C25.2721 15.8804 24.5807 15.5479 23.9436 15.1231C23.9368 15.1186 23.9302 15.114 23.9237 15.1091C22.8252 14.2906 21.5075 13.8781 20.1842 13.8557ZM26.1243 15.1809C26.1435 15.1687 26.1641 15.1553 26.1862 15.141C26.3133 15.0582 26.4734 14.9499 26.6346 14.839C26.96 14.6153 27.2715 14.3942 27.3092 14.366C27.3116 14.3642 27.314 14.3624 27.3164 14.3606C28.5495 13.4729 30.0325 12.9527 31.593 12.9279L31.6004 12.9278C35.6948 12.9278 38.7447 16.7963 38.7447 21.4871C38.7447 23.4866 37.8105 25.2994 37.0395 26.7955C37.0267 26.8203 37.0139 26.845 37.0012 26.8697L36.8401 27.192L36.8386 27.1949C35.4779 29.8702 34.4394 32.2931 33.605 34.2632C32.8442 36.0613 32.1929 37.5919 31.5493 38.6696C31.2267 39.2097 30.8893 39.6656 30.5179 39.9901C30.1403 40.32 29.7071 40.5309 29.2112 40.5309C28.9406 40.5309 28.628 40.5095 28.3423 40.358C28.0374 40.1964 27.8301 39.9251 27.6888 39.5629C27.5521 39.2124 27.4661 38.7496 27.4118 38.1518C27.3571 37.5487 27.3324 36.7788 27.3324 35.799C27.3324 33.7673 27.2653 32.4034 27.0173 31.5502C26.8958 31.1322 26.7446 30.8886 26.5821 30.7476C26.4296 30.6152 26.2216 30.5335 25.8942 30.5335C25.5668 30.5335 25.3589 30.6152 25.2063 30.7476C25.0439 30.8886 24.8926 31.1322 24.7711 31.5502C24.5231 32.4034 24.4561 33.7673 24.4561 35.799C24.4561 36.7788 24.4314 37.5487 24.3766 38.1518C24.3223 38.7496 24.2363 39.2124 24.0996 39.5629C23.9583 39.9251 23.751 40.1964 23.4461 40.358C23.1604 40.5095 22.8478 40.5309 22.5772 40.5309C22.0849 40.5309 21.6555 40.3181 21.282 39.9888C20.9143 39.6645 20.5787 39.209 20.2565 38.6696C19.6136 37.593 18.9565 36.0631 18.1844 34.2656L18.1843 34.2652C17.3492 32.3166 16.3104 29.8931 14.9491 27.1934L14.9483 27.192L14.7872 26.8697L14.7866 26.8685C14.7639 26.8238 14.741 26.7788 14.718 26.7335C13.9545 25.2307 13.0437 23.4381 13.0437 21.4871C13.0437 16.7722 16.0944 12.9278 20.188 12.9278L20.1956 12.9279C21.6969 12.9525 23.2037 13.4191 24.468 14.3576C24.9838 14.7003 25.5408 14.9757 26.1243 15.1809Z"/>
<path d="M24.7344 3H26.2421V6.01546H24.7344V3Z"/>
<path d="M29.8143 6.45619L30.5798 3.5567L32.0411 3.95103L31.2757 6.85052L29.8143 6.45619Z"/>
<path d="M34.5927 8.21907L36.1004 5.64433L37.3994 6.3866L35.8916 8.96134L34.5927 8.21907Z"/>
<path d="M38.7215 11.1881L40.8324 9.07732L41.8994 10.1443L39.7885 12.2552L38.7215 11.1881Z"/>
<path d="M41.9921 15.0851L44.5669 13.5773L45.3092 14.8763L42.7344 16.384L41.9921 15.0851Z"/>
<path d="M44.103 19.7242L47.0025 18.9588L47.3968 20.4201L44.4973 21.1856L44.103 19.7242Z"/>
<path d="M44.9844 24.7345H47.9999V26.2423H44.9844V24.7345Z"/>
<path d="M44.103 31.2526L44.4973 29.7912L47.3968 30.5567L47.0025 32.018L44.103 31.2526Z"/>
<path d="M41.9921 35.8686L42.7344 34.5696L45.3092 36.0773L44.5669 37.3763L41.9921 35.8686Z"/>
<path d="M38.7215 39.8119L39.7885 38.7448L41.8994 40.8557L40.8324 41.9227L38.7215 39.8119Z"/>
<path d="M34.5927 42.7345L35.8916 41.9923L37.3994 44.567L36.1004 45.3093L34.5927 42.7345Z"/>
<path d="M29.8143 44.4974L31.2757 44.1031L32.0411 47.0026L30.5798 47.3969L29.8143 44.4974Z"/>
<path d="M24.7344 44.9845H26.2421V48H24.7344V44.9845Z"/>
<path d="M18.9354 47.0026L19.7009 44.1031L21.1622 44.4974L20.3968 47.3969L18.9354 47.0026Z"/>
<path d="M13.5772 44.5902L15.0849 42.0155L16.3839 42.7577L14.8762 45.3325L13.5772 44.5902Z"/>
<path d="M9.054 40.8557L11.1648 38.7448L12.2318 39.8119L10.121 41.9227L9.054 40.8557Z"/>
<path d="M5.64421 36.1005L8.21895 34.5928L8.96122 35.8918L6.38648 37.3995L5.64421 36.1005Z"/>
<path d="M3.55658 30.5799L6.45606 29.8144L6.85039 31.2758L3.95091 32.0412L3.55658 30.5799Z"/>
<path d="M2.99988 24.7345H6.01534V26.2423H2.99988V24.7345Z"/>
<path d="M3.55658 20.3969L3.95091 18.9356L6.85039 19.701L6.45606 21.1624L3.55658 20.3969Z"/>
<path d="M5.64421 14.8995L6.38648 13.6005L8.96122 15.1082L8.21895 16.4072L5.64421 14.8995Z"/>
<path d="M9.054 10.0979L10.121 9.03093L12.2318 11.1418L11.1648 12.2088L9.054 10.0979Z"/>
<path d="M13.5772 6.3866L14.8762 5.64433L16.3839 8.21907L15.0849 8.96134L13.5772 6.3866Z"/>
<path d="M18.9354 3.95103L20.3968 3.5567L21.1622 6.45619L19.7009 6.85052L18.9354 3.95103Z"/>
</mask>
<path fill-rule="evenodd" clip-rule="evenodd" d="M20.1842 13.8557C16.7641 13.8581 13.9715 17.1109 13.9715 21.4871C13.9715 23.2126 14.7928 24.8307 15.5844 26.3903L15.6159 26.4523L15.7775 26.7757L15.7779 26.7764C17.1527 29.5029 18.2011 31.949 19.0358 33.8967L19.037 33.8994C19.8191 35.7204 20.4493 37.1827 21.0531 38.1938C21.3543 38.6982 21.632 39.0604 21.8957 39.2928C22.1535 39.5202 22.3736 39.6031 22.5772 39.6031C22.8169 39.6031 22.9363 39.5781 23.0116 39.5382C23.0677 39.5085 23.1503 39.4434 23.2352 39.2258C23.3246 38.9964 23.401 38.6357 23.4526 38.0679C23.5036 37.5055 23.5282 36.7676 23.5282 35.799C23.5282 33.7945 23.5888 32.2938 23.8801 31.2913C24.0283 30.7815 24.2495 30.3495 24.5981 30.0469C24.9566 29.7357 25.3981 29.6057 25.8942 29.6057C26.3903 29.6057 26.8318 29.7357 27.1903 30.0469C27.5389 30.3495 27.7602 30.7815 27.9083 31.2913C28.1997 32.2938 28.2602 33.7945 28.2602 35.799C28.2602 36.7676 28.2848 37.5055 28.3358 38.0679C28.3874 38.6357 28.4638 38.9964 28.5532 39.2258C28.6381 39.4434 28.7207 39.5085 28.7768 39.5382C28.8521 39.5781 28.9715 39.6031 29.2112 39.6031C29.4229 39.6031 29.6478 39.5183 29.9074 39.2914C30.1731 39.0592 30.4519 38.6975 30.7527 38.1938C31.3559 37.1838 31.9803 35.7222 32.7505 33.9017C33.586 31.929 34.6349 29.4812 36.0108 26.7758C36.0111 26.7753 36.0114 26.7747 36.0116 26.7742L36.1726 26.4523L36.1751 26.4473C36.9742 24.8962 37.8169 23.2574 37.8169 21.4871C37.8169 17.1331 35.0235 13.858 31.6041 13.8557C30.2445 13.878 28.9464 14.3312 27.8614 15.1115C27.8061 15.1525 27.5751 15.3163 27.3164 15.4958C27.8492 15.5921 28.3947 15.6338 28.9434 15.6187C29.1995 15.6117 29.4128 15.8137 29.4198 16.0698C29.4268 16.3259 29.2249 16.5392 28.9688 16.5462C27.9797 16.5733 26.9968 16.4354 26.0661 16.1397C26.0421 16.1341 26.0186 16.1265 25.996 16.1171C25.2721 15.8804 24.5807 15.5479 23.9436 15.1231C23.9368 15.1186 23.9302 15.114 23.9237 15.1091C22.8252 14.2906 21.5075 13.8781 20.1842 13.8557ZM26.1243 15.1809C26.1435 15.1687 26.1641 15.1553 26.1862 15.141C26.3133 15.0582 26.4734 14.9499 26.6346 14.839C26.96 14.6153 27.2715 14.3942 27.3092 14.366C27.3116 14.3642 27.314 14.3624 27.3164 14.3606C28.5495 13.4729 30.0325 12.9527 31.593 12.9279L31.6004 12.9278C35.6948 12.9278 38.7447 16.7963 38.7447 21.4871C38.7447 23.4866 37.8105 25.2994 37.0395 26.7955C37.0267 26.8203 37.0139 26.845 37.0012 26.8697L36.8401 27.192L36.8386 27.1949C35.4779 29.8702 34.4394 32.2931 33.605 34.2632C32.8442 36.0613 32.1929 37.5919 31.5493 38.6696C31.2267 39.2097 30.8893 39.6656 30.5179 39.9901C30.1403 40.32 29.7071 40.5309 29.2112 40.5309C28.9406 40.5309 28.628 40.5095 28.3423 40.358C28.0374 40.1964 27.8301 39.9251 27.6888 39.5629C27.5521 39.2124 27.4661 38.7496 27.4118 38.1518C27.3571 37.5487 27.3324 36.7788 27.3324 35.799C27.3324 33.7673 27.2653 32.4034 27.0173 31.5502C26.8958 31.1322 26.7446 30.8886 26.5821 30.7476C26.4296 30.6152 26.2216 30.5335 25.8942 30.5335C25.5668 30.5335 25.3589 30.6152 25.2063 30.7476C25.0439 30.8886 24.8926 31.1322 24.7711 31.5502C24.5231 32.4034 24.4561 33.7673 24.4561 35.799C24.4561 36.7788 24.4314 37.5487 24.3766 38.1518C24.3223 38.7496 24.2363 39.2124 24.0996 39.5629C23.9583 39.9251 23.751 40.1964 23.4461 40.358C23.1604 40.5095 22.8478 40.5309 22.5772 40.5309C22.0849 40.5309 21.6555 40.3181 21.282 39.9888C20.9143 39.6645 20.5787 39.209 20.2565 38.6696C19.6136 37.593 18.9565 36.0631 18.1844 34.2656L18.1843 34.2652C17.3492 32.3166 16.3104 29.8931 14.9491 27.1934L14.9483 27.192L14.7872 26.8697L14.7866 26.8685C14.7639 26.8238 14.741 26.7788 14.718 26.7335C13.9545 25.2307 13.0437 23.4381 13.0437 21.4871C13.0437 16.7722 16.0944 12.9278 20.188 12.9278L20.1956 12.9279C21.6969 12.9525 23.2037 13.4191 24.468 14.3576C24.9838 14.7003 25.5408 14.9757 26.1243 15.1809Z" fill="white"/>
<path d="M24.7344 3H26.2421V6.01546H24.7344V3Z" fill="white"/>
<path d="M29.8143 6.45619L30.5798 3.5567L32.0411 3.95103L31.2757 6.85052L29.8143 6.45619Z" fill="white"/>
<path d="M34.5927 8.21907L36.1004 5.64433L37.3994 6.3866L35.8916 8.96134L34.5927 8.21907Z" fill="white"/>
<path d="M38.7215 11.1881L40.8324 9.07732L41.8994 10.1443L39.7885 12.2552L38.7215 11.1881Z" fill="white"/>
<path d="M41.9921 15.0851L44.5669 13.5773L45.3092 14.8763L42.7344 16.384L41.9921 15.0851Z" fill="white"/>
<path d="M44.103 19.7242L47.0025 18.9588L47.3968 20.4201L44.4973 21.1856L44.103 19.7242Z" fill="white"/>
<path d="M44.9844 24.7345H47.9999V26.2423H44.9844V24.7345Z" fill="white"/>
<path d="M44.103 31.2526L44.4973 29.7912L47.3968 30.5567L47.0025 32.018L44.103 31.2526Z" fill="white"/>
<path d="M41.9921 35.8686L42.7344 34.5696L45.3092 36.0773L44.5669 37.3763L41.9921 35.8686Z" fill="white"/>
<path d="M38.7215 39.8119L39.7885 38.7448L41.8994 40.8557L40.8324 41.9227L38.7215 39.8119Z" fill="white"/>
<path d="M34.5927 42.7345L35.8916 41.9923L37.3994 44.567L36.1004 45.3093L34.5927 42.7345Z" fill="white"/>
<path d="M29.8143 44.4974L31.2757 44.1031L32.0411 47.0026L30.5798 47.3969L29.8143 44.4974Z" fill="white"/>
<path d="M24.7344 44.9845H26.2421V48H24.7344V44.9845Z" fill="white"/>
<path d="M18.9354 47.0026L19.7009 44.1031L21.1622 44.4974L20.3968 47.3969L18.9354 47.0026Z" fill="white"/>
<path d="M13.5772 44.5902L15.0849 42.0155L16.3839 42.7577L14.8762 45.3325L13.5772 44.5902Z" fill="white"/>
<path d="M9.054 40.8557L11.1648 38.7448L12.2318 39.8119L10.121 41.9227L9.054 40.8557Z" fill="white"/>
<path d="M5.64421 36.1005L8.21895 34.5928L8.96122 35.8918L6.38648 37.3995L5.64421 36.1005Z" fill="white"/>
<path d="M3.55658 30.5799L6.45606 29.8144L6.85039 31.2758L3.95091 32.0412L3.55658 30.5799Z" fill="white"/>
<path d="M2.99988 24.7345H6.01534V26.2423H2.99988V24.7345Z" fill="white"/>
<path d="M3.55658 20.3969L3.95091 18.9356L6.85039 19.701L6.45606 21.1624L3.55658 20.3969Z" fill="white"/>
<path d="M5.64421 14.8995L6.38648 13.6005L8.96122 15.1082L8.21895 16.4072L5.64421 14.8995Z" fill="white"/>
<path d="M9.054 10.0979L10.121 9.03093L12.2318 11.1418L11.1648 12.2088L9.054 10.0979Z" fill="white"/>
<path d="M13.5772 6.3866L14.8762 5.64433L16.3839 8.21907L15.0849 8.96134L13.5772 6.3866Z" fill="white"/>
<path d="M18.9354 3.95103L20.3968 3.5567L21.1622 6.45619L19.7009 6.85052L18.9354 3.95103Z" fill="white"/>
<path d="M20.1842 13.8557L20.2012 12.8558C20.1953 12.8557 20.1894 12.8557 20.1835 12.8557L20.1842 13.8557ZM15.5844 26.3903L16.4761 25.9378L16.4761 25.9377L15.5844 26.3903ZM15.6159 26.4523L16.5103 26.0051L16.5076 25.9997L15.6159 26.4523ZM15.7775 26.7757L14.8831 27.2228L14.8853 27.2272L15.7775 26.7757ZM15.7779 26.7764L16.6708 26.3261L16.6701 26.3248L15.7779 26.7764ZM19.0358 33.8967L19.9552 33.5034L19.955 33.5028L19.0358 33.8967ZM19.037 33.8994L18.1175 34.2927L18.1181 34.294L19.037 33.8994ZM21.0531 38.1938L21.9117 37.6811L21.0531 38.1938ZM21.8957 39.2928L21.2343 40.0429L21.2343 40.0429L21.8957 39.2928ZM23.0116 39.5382L23.4799 40.4218L23.4799 40.4218L23.0116 39.5382ZM23.2352 39.2258L22.3035 38.8624L23.2352 39.2258ZM23.4526 38.0679L22.4567 37.9775L23.4526 38.0679ZM23.8801 31.2913L24.8404 31.5704V31.5704L23.8801 31.2913ZM24.5981 30.0469L25.2536 30.8021L25.2536 30.8021L24.5981 30.0469ZM27.1903 30.0469L26.5348 30.8021L26.5348 30.8021L27.1903 30.0469ZM27.9083 31.2913L26.948 31.5704L26.948 31.5704L27.9083 31.2913ZM28.3358 38.0679L29.3318 37.9775L28.3358 38.0679ZM28.5532 39.2258L27.6216 39.5891L27.6216 39.5891L28.5532 39.2258ZM28.7768 39.5382L28.3085 40.4218L28.3085 40.4218L28.7768 39.5382ZM29.9074 39.2914L29.2494 38.5384L29.9074 39.2914ZM30.7527 38.1938L29.8941 37.6811L30.7527 38.1938ZM32.7505 33.9017L31.8296 33.5117L31.8295 33.5121L32.7505 33.9017ZM36.0108 26.7758L35.12 26.3215L35.1195 26.3225L36.0108 26.7758ZM36.0116 26.7742L36.9025 27.2286L36.9061 27.2214L36.0116 26.7742ZM36.1726 26.4523L35.2809 25.9995L35.2781 26.0051L36.1726 26.4523ZM36.1751 26.4473L35.2861 25.9894L35.2835 25.9946L36.1751 26.4473ZM31.6041 13.8557L31.6047 12.8557C31.599 12.8557 31.5933 12.8557 31.5876 12.8558L31.6041 13.8557ZM27.8614 15.1115L27.2775 14.2996L27.2663 14.3079L27.8614 15.1115ZM27.3164 15.4958L26.7465 14.6741C26.4141 14.9046 26.2534 15.3126 26.3392 15.7079C26.425 16.1032 26.7404 16.4078 27.1385 16.4798L27.3164 15.4958ZM28.9434 15.6187L28.9707 16.6184H28.9707L28.9434 15.6187ZM29.4198 16.0698L30.4194 16.0424L29.4198 16.0698ZM28.9688 16.5462L28.9414 15.5466L28.9688 16.5462ZM26.0661 16.1397L26.3688 15.1867C26.3449 15.1791 26.3208 15.1724 26.2965 15.1667L26.0661 16.1397ZM25.996 16.1171L26.377 15.1926C26.354 15.1831 26.3305 15.1744 26.3068 15.1667L25.996 16.1171ZM23.9436 15.1231L23.3889 15.9552L23.3889 15.9552L23.9436 15.1231ZM23.9237 15.1091L24.5212 14.3072L24.5212 14.3072L23.9237 15.1091ZM26.1862 15.141L25.6405 14.303L25.6405 14.303L26.1862 15.141ZM26.1243 15.1809L25.7925 16.1243C26.0824 16.2263 26.4032 16.1892 26.6623 16.0239L26.1243 15.1809ZM26.6346 14.839L26.0681 14.015L26.0681 14.015L26.6346 14.839ZM27.3092 14.366L27.9092 15.166L27.9092 15.1659L27.3092 14.366ZM27.3164 14.3606L26.7321 13.5491L26.7321 13.5491L27.3164 14.3606ZM31.593 12.9279L31.5851 11.9279L31.5772 11.928L31.593 12.9279ZM31.6004 12.9278V11.9278L31.5925 11.9279L31.6004 12.9278ZM37.0395 26.7955L37.9284 27.2536L37.9284 27.2536L37.0395 26.7955ZM37.0012 26.8697L36.1122 26.4117L36.1068 26.4225L37.0012 26.8697ZM36.8401 27.192L37.7327 27.6428L37.7345 27.6392L36.8401 27.192ZM36.8386 27.1949L37.73 27.6482L37.7313 27.6456L36.8386 27.1949ZM33.605 34.2632L32.6841 33.8732L32.684 33.8736L33.605 34.2632ZM31.5493 38.6696L32.4078 39.1823L31.5493 38.6696ZM30.5179 39.9901L31.1758 40.7432L31.1758 40.7432L30.5179 39.9901ZM28.3423 40.358L27.8739 41.2415H27.8739L28.3423 40.358ZM27.6888 39.5629L26.7571 39.9262L27.6888 39.5629ZM27.4118 38.1518L26.4159 38.2422V38.2422L27.4118 38.1518ZM27.0173 31.5502L26.0571 31.8293L26.0571 31.8293L27.0173 31.5502ZM26.5821 30.7476L27.2376 29.9924L27.2376 29.9924L26.5821 30.7476ZM25.2063 30.7476L24.5508 29.9924L24.5508 29.9924L25.2063 30.7476ZM24.7711 31.5502L25.7313 31.8293V31.8293L24.7711 31.5502ZM24.3766 38.1518L25.3725 38.2422V38.2422L24.3766 38.1518ZM24.0996 39.5629L25.0313 39.9262L24.0996 39.5629ZM23.4461 40.358L23.9145 41.2415H23.9145L23.4461 40.358ZM21.282 39.9888L21.9434 39.2387L21.282 39.9888ZM20.2565 38.6696L21.1151 38.1568L20.2565 38.6696ZM18.1844 34.2656L17.2643 34.6571L17.2656 34.6602L18.1844 34.2656ZM18.1843 34.2652L19.1045 33.8737L19.1034 33.8713L18.1843 34.2652ZM14.9491 27.1934L14.0553 27.642L14.0562 27.6437L14.9491 27.1934ZM14.9483 27.192L14.0539 27.6392L14.0546 27.6406L14.9483 27.192ZM14.7872 26.8697L15.6817 26.4225L15.6791 26.4174L14.7872 26.8697ZM14.7866 26.8685L15.6784 26.4162L15.6783 26.416L14.7866 26.8685ZM14.718 26.7335L13.8265 27.1865L13.8265 27.1865L14.718 26.7335ZM20.188 12.9278L20.1962 11.9278H20.188V12.9278ZM20.1956 12.9279L20.212 11.928L20.2038 11.9279L20.1956 12.9279ZM24.468 14.3576L23.872 15.1606C23.8859 15.1709 23.9002 15.1809 23.9147 15.1906L24.468 14.3576ZM24.7344 3V2H23.7344V3H24.7344ZM26.2421 3H27.2421V2H26.2421V3ZM26.2421 6.01546V7.01546H27.2421V6.01546H26.2421ZM24.7344 6.01546H23.7344V7.01546H24.7344V6.01546ZM29.8143 6.45619L28.8474 6.20093L28.5936 7.16255L29.5538 7.42165L29.8143 6.45619ZM30.5798 3.5567L30.8403 2.59123L29.8696 2.32929L29.6129 3.30145L30.5798 3.5567ZM32.0411 3.95103L33.008 4.20629L33.2619 3.24467L32.3016 2.98556L32.0411 3.95103ZM31.2757 6.85052L31.0151 7.81598L31.9859 8.07793L32.2425 7.10577L31.2757 6.85052ZM34.5927 8.21907L33.7297 7.71375L33.219 8.58588L34.0965 9.08731L34.5927 8.21907ZM36.1004 5.64433L36.5965 4.77609L35.7375 4.28518L35.2375 5.13901L36.1004 5.64433ZM37.3994 6.3866L38.2623 6.89192L38.773 6.01978L37.8955 5.51835L37.3994 6.3866ZM35.8916 8.96134L35.3955 9.82958L36.2546 10.3205L36.7546 9.46666L35.8916 8.96134ZM38.7215 11.1881L38.0144 10.481L37.3073 11.1881L38.0144 11.8953L38.7215 11.1881ZM40.8324 9.07732L41.5395 8.37021L40.8323 7.66311L40.1252 8.37021L40.8324 9.07732ZM41.8994 10.1443L42.6065 10.8514L43.3136 10.1443L42.6065 9.43722L41.8994 10.1443ZM39.7885 12.2552L39.0814 12.9623L39.7885 13.6694L40.4956 12.9623L39.7885 12.2552ZM41.9921 15.0851L41.4868 14.2221L40.633 14.7221L41.1239 15.5812L41.9921 15.0851ZM44.5669 13.5773L45.4351 13.0812L44.9337 12.2037L44.0616 12.7144L44.5669 13.5773ZM45.3092 14.8763L45.8145 15.7392L46.6683 15.2392L46.1774 14.3802L45.3092 14.8763ZM42.7344 16.384L41.8662 16.8802L42.3676 17.7577L43.2397 17.247L42.7344 16.384ZM44.103 19.7242L43.8477 18.7574L42.8756 19.014L43.1375 19.9847L44.103 19.7242ZM47.0025 18.9588L47.9679 18.6982L47.7088 17.738L46.7472 17.9919L47.0025 18.9588ZM47.3968 20.4201L47.652 21.387L48.6242 21.1303L48.3623 20.1596L47.3968 20.4201ZM44.4973 21.1856L43.5318 21.4461L43.7909 22.4063L44.7526 22.1524L44.4973 21.1856ZM44.9844 24.7345V23.7345H43.9844V24.7345H44.9844ZM47.9999 24.7345H48.9999V23.7345H47.9999V24.7345ZM47.9999 26.2423V27.2423H48.9999V26.2423H47.9999ZM44.9844 26.2423H43.9844V27.2423H44.9844V26.2423ZM44.103 31.2526L43.1375 30.9921L42.8756 31.9628L43.8477 32.2194L44.103 31.2526ZM44.4973 29.7912L44.7526 28.8244L43.7909 28.5705L43.5318 29.5307L44.4973 29.7912ZM47.3968 30.5567L48.3623 30.8172L48.6242 29.8465L47.652 29.5898L47.3968 30.5567ZM47.0025 32.018L46.7472 32.9849L47.7088 33.2388L47.9679 32.2786L47.0025 32.018ZM41.9921 35.8686L41.1239 35.3724L40.633 36.2315L41.4868 36.7315L41.9921 35.8686ZM42.7344 34.5696L43.2397 33.7067L42.3676 33.1959L41.8662 34.0735L42.7344 34.5696ZM45.3092 36.0773L46.1774 36.5735L46.6683 35.7144L45.8145 35.2144L45.3092 36.0773ZM44.5669 37.3763L44.0616 38.2392L44.9337 38.7499L45.4351 37.8724L44.5669 37.3763ZM38.7215 39.8119L38.0144 39.1048L37.3073 39.8119L38.0144 40.519L38.7215 39.8119ZM39.7885 38.7448L40.4956 38.0377L39.7885 37.3306L39.0814 38.0377L39.7885 38.7448ZM41.8994 40.8557L42.6065 41.5628L43.3136 40.8557L42.6065 40.1486L41.8994 40.8557ZM40.8324 41.9227L40.1252 42.6298L40.8323 43.3369L41.5395 42.6298L40.8324 41.9227ZM34.5927 42.7345L34.0965 41.8663L33.219 42.3677L33.7297 43.2399L34.5927 42.7345ZM35.8916 41.9923L36.7546 41.4869L36.2546 40.6331L35.3955 41.124L35.8916 41.9923ZM37.3994 44.567L37.8955 45.4353L38.773 44.9338L38.2623 44.0617L37.3994 44.567ZM36.1004 45.3093L35.2375 45.8146L35.7375 46.6684L36.5965 46.1775L36.1004 45.3093ZM29.8143 44.4974L29.5538 43.532L28.5936 43.7911L28.8474 44.7527L29.8143 44.4974ZM31.2757 44.1031L32.2425 43.8478L31.9859 42.8757L31.0151 43.1376L31.2757 44.1031ZM32.0411 47.0026L32.3016 47.968L33.2619 47.7089L33.008 46.7473L32.0411 47.0026ZM30.5798 47.3969L29.6129 47.6522L29.8696 48.6243L30.8403 48.3624L30.5798 47.3969ZM24.7344 44.9845V43.9845H23.7344V44.9845H24.7344ZM26.2421 44.9845H27.2421V43.9845H26.2421V44.9845ZM26.2421 48V49H27.2421V48H26.2421ZM24.7344 48H23.7344V49H24.7344V48ZM18.9354 47.0026L17.9686 46.7473L17.7147 47.7089L18.6749 47.968L18.9354 47.0026ZM19.7009 44.1031L19.9614 43.1376L18.9907 42.8757L18.734 43.8478L19.7009 44.1031ZM21.1622 44.4974L22.1291 44.7527L22.383 43.7911L21.4228 43.532L21.1622 44.4974ZM20.3968 47.3969L20.1363 48.3624L21.107 48.6243L21.3637 47.6522L20.3968 47.3969ZM13.5772 44.5902L12.7143 44.0849L12.2036 44.957L13.0811 45.4585L13.5772 44.5902ZM15.0849 42.0155L15.5811 41.1472L14.722 40.6563L14.222 41.5101L15.0849 42.0155ZM16.3839 42.7577L17.2468 43.2631L17.7575 42.3909L16.88 41.8895L16.3839 42.7577ZM14.8762 45.3325L14.38 46.2007L15.2391 46.6916L15.7391 45.8378L14.8762 45.3325ZM9.054 40.8557L8.34689 40.1486L7.63979 40.8557L8.3469 41.5628L9.054 40.8557ZM11.1648 38.7448L11.8719 38.0377L11.1648 37.3306L10.4577 38.0377L11.1648 38.7448ZM12.2318 39.8119L12.9389 40.519L13.6461 39.8119L12.9389 39.1048L12.2318 39.8119ZM10.121 41.9227L9.41391 42.6298L10.121 43.3369L10.8281 42.6298L10.121 41.9227ZM5.64421 36.1005L5.13889 35.2376L4.28506 35.7376L4.77597 36.5967L5.64421 36.1005ZM8.21895 34.5928L9.08719 34.0966L8.58576 33.2191L7.71363 33.7299L8.21895 34.5928ZM8.96122 35.8918L9.46654 36.7547L10.3204 36.2547L9.82946 35.3956L8.96122 35.8918ZM6.38648 37.3995L5.51823 37.8956L6.01966 38.7731L6.8918 38.2624L6.38648 37.3995ZM3.55658 30.5799L3.30132 29.613L2.32916 29.8697L2.59111 30.8404L3.55658 30.5799ZM6.45606 29.8144L7.42153 29.5539L7.16243 28.5937L6.20081 28.8476L6.45606 29.8144ZM6.85039 31.2758L7.10565 32.2426L8.07781 31.986L7.81586 31.0153L6.85039 31.2758ZM3.95091 32.0412L2.98544 32.3018L3.24455 33.262L4.20616 33.0081L3.95091 32.0412ZM2.99988 24.7345V23.7345H1.99988V24.7345H2.99988ZM6.01534 24.7345H7.01534V23.7345H6.01534V24.7345ZM6.01534 26.2423V27.2423H7.01534V26.2423H6.01534ZM2.99988 26.2423H1.99988V27.2423H2.99988V26.2423ZM3.55658 20.3969L2.59111 20.1364L2.32916 21.1071L3.30133 21.3638L3.55658 20.3969ZM3.95091 18.9356L4.20616 17.9687L3.24455 17.7148L2.98544 18.675L3.95091 18.9356ZM6.85039 19.701L7.81586 19.9616L8.07781 18.9908L7.10565 18.7342L6.85039 19.701ZM6.45606 21.1624L6.20081 22.1292L7.16243 22.3831L7.42153 21.4229L6.45606 21.1624ZM5.64421 14.8995L4.77596 14.4033L4.28506 15.2624L5.13889 15.7624L5.64421 14.8995ZM6.38648 13.6005L6.8918 12.7376L6.01966 12.2269L5.51823 13.1044L6.38648 13.6005ZM8.96122 15.1082L9.82946 15.6044L10.3204 14.7453L9.46654 14.2453L8.96122 15.1082ZM8.21895 16.4072L7.71363 17.2701L8.58576 17.7809L9.08719 16.9034L8.21895 16.4072ZM9.054 10.0979L8.3469 9.39083L7.63979 10.0979L8.34689 10.805L9.054 10.0979ZM10.121 9.03093L10.8281 8.32382L10.121 7.61671L9.41391 8.32382L10.121 9.03093ZM12.2318 11.1418L12.9389 11.8489L13.6461 11.1418L12.9389 10.4346L12.2318 11.1418ZM11.1648 12.2088L10.4577 12.9159L11.1648 13.623L11.8719 12.9159L11.1648 12.2088ZM13.5772 6.3866L13.0811 5.51835L12.2036 6.01978L12.7143 6.89192L13.5772 6.3866ZM14.8762 5.64433L15.7391 5.13901L15.2391 4.28518L14.38 4.77609L14.8762 5.64433ZM16.3839 8.21907L16.88 9.08732L17.7575 8.58589L17.2468 7.71375L16.3839 8.21907ZM15.0849 8.96134L14.222 9.46666L14.722 10.3205L15.5811 9.82958L15.0849 8.96134ZM18.9354 3.95103L18.6749 2.98556L17.7147 3.24467L17.9686 4.20629L18.9354 3.95103ZM20.3968 3.5567L21.3637 3.30145L21.107 2.32929L20.1363 2.59123L20.3968 3.5567ZM21.1622 6.45619L21.4228 7.42165L22.383 7.16255L22.1291 6.20093L21.1622 6.45619ZM19.7009 6.85052L18.734 7.10577L18.9907 8.07793L19.9614 7.81598L19.7009 6.85052ZM14.9715 21.4871C14.9715 17.478 17.4851 14.8576 20.1849 14.8557L20.1835 12.8557C16.043 12.8586 12.9715 16.7438 12.9715 21.4871H14.9715ZM16.4761 25.9377C15.6605 24.3308 14.9715 22.9308 14.9715 21.4871H12.9715C12.9715 23.4944 13.925 25.3305 14.6927 26.8429L16.4761 25.9377ZM16.6719 26.3285L16.5103 26.0051L14.7214 26.8995L14.8831 27.2228L16.6719 26.3285ZM16.6701 26.3248L16.6697 26.3241L14.8853 27.2272L14.8856 27.2279L16.6701 26.3248ZM19.955 33.5028C19.1203 31.5553 18.0611 29.0834 16.6708 26.3261L14.885 27.2266C16.2443 29.9224 17.2819 32.3427 18.1167 34.2906L19.955 33.5028ZM19.9564 33.5061L19.9552 33.5034L18.1164 34.29L18.1175 34.2927L19.9564 33.5061ZM21.9117 37.6811C21.35 36.7406 20.7488 35.3512 19.9558 33.5048L18.1181 34.294C18.8893 36.0896 19.5486 37.6249 20.1946 38.7066L21.9117 37.6811ZM22.557 38.5428C22.4057 38.4093 22.1903 38.1477 21.9117 37.6811L20.1946 38.7066C20.5183 39.2486 20.8584 39.7114 21.2343 40.0429L22.557 38.5428ZM22.5772 38.6031C22.5951 38.6031 22.6128 38.605 22.6289 38.6084C22.6449 38.6118 22.6543 38.6156 22.6565 38.6166C22.6596 38.618 22.6267 38.6042 22.557 38.5428L21.2343 40.0429C21.6179 40.3812 22.0636 40.6031 22.5772 40.6031V38.6031ZM22.5432 38.6547C22.6267 38.6105 22.689 38.5997 22.696 38.5985C22.6993 38.598 22.6922 38.5993 22.6715 38.6006C22.6509 38.602 22.6203 38.6031 22.5772 38.6031V40.6031C22.8473 40.6031 23.1766 40.5826 23.4799 40.4218L22.5432 38.6547ZM22.3035 38.8624C22.2874 38.9038 22.2921 38.8766 22.3359 38.8225C22.3591 38.794 22.3903 38.7615 22.4304 38.7292C22.4713 38.6962 22.5109 38.6718 22.5432 38.6547L23.4799 40.4218C23.8022 40.2509 24.0202 39.9652 24.1668 39.5891L22.3035 38.8624ZM22.4567 37.9775C22.408 38.5131 22.342 38.7637 22.3035 38.8624L24.1668 39.5891C24.3073 39.229 24.394 38.7582 24.4485 38.1583L22.4567 37.9775ZM22.5282 35.799C22.5282 36.7554 22.5038 37.4589 22.4567 37.9775L24.4485 38.1583C24.5035 37.552 24.5282 36.7797 24.5282 35.799H22.5282ZM22.9198 31.0122C22.5818 32.1754 22.5282 33.8233 22.5282 35.799H24.5282C24.5282 33.7658 24.5957 32.4121 24.8404 31.5704L22.9198 31.0122ZM23.9426 29.2917C23.3934 29.7685 23.0967 30.4038 22.9198 31.0122L24.8404 31.5704C24.9598 31.1593 25.1057 30.9305 25.2536 30.8021L23.9426 29.2917ZM25.8942 28.6057C25.217 28.6057 24.5235 28.7874 23.9426 29.2917L25.2536 30.8021C25.3897 30.6839 25.5793 30.6057 25.8942 30.6057V28.6057ZM27.8459 29.2917C27.2649 28.7874 26.5714 28.6057 25.8942 28.6057V30.6057C26.2091 30.6057 26.3987 30.6839 26.5348 30.8021L27.8459 29.2917ZM28.8686 31.0122C28.6918 30.4038 28.3951 29.7685 27.8459 29.2917L26.5348 30.8021C26.6827 30.9305 26.8286 31.1593 26.948 31.5704L28.8686 31.0122ZM29.2602 35.799C29.2602 33.8233 29.2066 32.1754 28.8686 31.0122L26.948 31.5704C27.1927 32.4121 27.2602 33.7658 27.2602 35.799H29.2602ZM29.3318 37.9775C29.2847 37.4589 29.2602 36.7554 29.2602 35.799H27.2602C27.2602 36.7797 27.2849 37.552 27.3399 38.1583L29.3318 37.9775ZM29.4849 38.8624C29.4464 38.7637 29.3804 38.5131 29.3318 37.9775L27.3399 38.1583C27.3944 38.7582 27.4811 39.229 27.6216 39.5891L29.4849 38.8624ZM29.2452 38.6547C29.2775 38.6718 29.3171 38.6962 29.358 38.7292C29.3981 38.7615 29.4294 38.794 29.4525 38.8225C29.4963 38.8766 29.501 38.9038 29.4849 38.8624L27.6216 39.5891C27.7682 39.9652 27.9862 40.2509 28.3085 40.4218L29.2452 38.6547ZM29.2112 38.6031C29.1681 38.6031 29.1375 38.602 29.1169 38.6006C29.0962 38.5993 29.0892 38.598 29.0924 38.5985C29.0994 38.5997 29.1618 38.6105 29.2452 38.6547L28.3085 40.4218C28.6118 40.5826 28.9411 40.6031 29.2112 40.6031V38.6031ZM29.2494 38.5384C29.1796 38.5993 29.1454 38.614 29.1459 38.6138C29.1467 38.6135 29.1543 38.6104 29.1678 38.6075C29.1815 38.6047 29.1965 38.6031 29.2112 38.6031V40.6031C29.7281 40.6031 30.1776 40.3833 30.5653 40.0445L29.2494 38.5384ZM29.8941 37.6811C29.6167 38.1457 29.4012 38.4058 29.2494 38.5384L30.5653 40.0445C30.9451 39.7127 31.2871 39.2494 31.6112 38.7066L29.8941 37.6811ZM31.8295 33.5121C31.049 35.3569 30.4537 36.7441 29.8941 37.6811L31.6112 38.7066C32.258 37.6236 32.9115 36.0875 33.6714 34.2914L31.8295 33.5121ZM35.1195 26.3225C33.7267 29.061 32.6665 31.5358 31.8296 33.5117L33.6713 34.2917C34.5054 32.3221 35.543 29.9015 36.9022 27.2291L35.1195 26.3225ZM35.1208 26.3199C35.1203 26.3208 35.1199 26.3217 35.1198 26.3219C35.1196 26.3222 35.1198 26.3219 35.12 26.3215L36.9017 27.2301C36.9021 27.2292 36.9026 27.2283 36.9027 27.2282C36.9028 27.2278 36.9027 27.2281 36.9025 27.2285L35.1208 26.3199ZM35.2781 26.0051L35.1172 26.327L36.9061 27.2214L37.067 26.8995L35.2781 26.0051ZM35.2835 25.9946L35.2809 25.9995L37.0642 26.9051L37.0667 26.9001L35.2835 25.9946ZM36.8169 21.4871C36.8169 22.9731 36.1082 24.3936 35.2861 25.9894L37.0641 26.9053C37.8402 25.3988 38.8169 23.5418 38.8169 21.4871H36.8169ZM31.6034 14.8557C34.3008 14.8575 36.8169 17.4982 36.8169 21.4871H38.8169C38.8169 16.768 35.7462 12.8585 31.6047 12.8557L31.6034 14.8557ZM28.4453 15.9234C29.3727 15.2564 30.4743 14.8744 31.6205 14.8555L31.5876 12.8558C30.0146 12.8817 28.5202 13.406 27.2775 14.2997L28.4453 15.9234ZM27.8863 16.3175C28.1441 16.1387 28.3871 15.9666 28.4565 15.9152L27.2663 14.3079C27.2251 14.3384 27.0061 14.494 26.7465 14.6741L27.8863 16.3175ZM28.916 14.6191C28.436 14.6323 27.9593 14.5958 27.4943 14.5117L27.1385 16.4798C27.7392 16.5884 28.3535 16.6353 28.9707 16.6184L28.916 14.6191ZM30.4194 16.0424C30.3973 15.2342 29.7242 14.597 28.916 14.6191L28.9707 16.6184C28.6748 16.6265 28.4283 16.3931 28.4202 16.0972L30.4194 16.0424ZM28.9962 17.5458C29.8043 17.5237 30.4416 16.8506 30.4194 16.0424L28.4202 16.0972C28.4121 15.8012 28.6454 15.5547 28.9414 15.5466L28.9962 17.5458ZM25.7634 17.0928C26.8018 17.4227 27.8964 17.576 28.9962 17.5458L28.9414 15.5466C28.063 15.5707 27.1917 15.448 26.3688 15.1867L25.7634 17.0928ZM25.6149 17.0417C25.6862 17.0711 25.76 17.0949 25.8356 17.1128L26.2965 15.1667C26.3242 15.1732 26.3511 15.1819 26.377 15.1926L25.6149 17.0417ZM23.3889 15.9552C24.1035 16.4316 24.8772 16.8034 25.6851 17.0676L26.3068 15.1667C25.6671 14.9574 25.058 14.6642 24.4983 14.2911L23.3889 15.9552ZM23.3262 15.911C23.3468 15.9263 23.3677 15.941 23.3889 15.9552L24.4983 14.2911C24.506 14.2962 24.5137 14.3016 24.5212 14.3072L23.3262 15.911ZM20.1673 14.8555C21.296 14.8747 22.4072 15.2262 23.3262 15.911L24.5212 14.3072C23.2431 13.3549 21.7191 12.8816 20.2012 12.8558L20.1673 14.8555ZM25.6405 14.303C25.6207 14.3159 25.6026 14.3276 25.5863 14.338L26.6623 16.0239C26.6843 16.0098 26.7076 15.9948 26.7318 15.979L25.6405 14.303ZM26.0681 14.015C25.9094 14.1241 25.7572 14.227 25.6405 14.303L26.7318 15.979C26.8693 15.8895 27.0374 15.7756 27.2011 15.6631L26.0681 14.015ZM26.7092 13.566C26.7117 13.5641 26.6964 13.5753 26.6534 13.6059C26.6157 13.6328 26.5646 13.669 26.5041 13.7115C26.3832 13.7966 26.2271 13.9057 26.0681 14.015L27.2011 15.6631C27.525 15.4404 27.8527 15.2083 27.9092 15.166L26.7092 13.566ZM26.7321 13.5491C26.7245 13.5546 26.7168 13.5602 26.7091 13.566L27.9092 15.1659C27.9063 15.1681 27.9035 15.1702 27.9008 15.1721L26.7321 13.5491ZM31.5772 11.928C29.8027 11.9562 28.123 12.5477 26.7321 13.5491L27.9007 15.1722C28.9759 14.398 30.2622 13.9491 31.6089 13.9278L31.5772 11.928ZM31.5925 11.9279L31.5851 11.9279L31.601 13.9279L31.6083 13.9278L31.5925 11.9279ZM39.7447 21.4871C39.7447 16.4384 36.4232 11.9278 31.6004 11.9278V13.9278C34.9663 13.9278 37.7447 17.1542 37.7447 21.4871H39.7447ZM37.9284 27.2536C38.6813 25.7926 39.7447 23.7675 39.7447 21.4871H37.7447C37.7447 23.2057 36.9397 24.8061 36.1506 26.3374L37.9284 27.2536ZM37.8902 27.3277C37.9029 27.3031 37.9156 27.2784 37.9284 27.2536L36.1506 26.3374C36.1378 26.3622 36.125 26.387 36.1123 26.4117L37.8902 27.3277ZM37.7345 27.6392L37.8957 27.3169L36.1068 26.4225L35.9456 26.7448L37.7345 27.6392ZM37.7313 27.6456L37.7327 27.6428L35.9474 26.7412L35.946 26.7441L37.7313 27.6456ZM34.5258 34.6532C35.3589 32.6862 36.3861 30.2904 37.73 27.6482L35.9473 26.7415C34.5698 29.4499 33.5199 31.8999 32.6841 33.8732L34.5258 34.6532ZM32.4078 39.1823C33.0949 38.0318 33.7753 36.427 34.5259 34.6529L32.684 33.8736C31.9131 35.6956 31.2908 37.1521 30.6907 38.1568L32.4078 39.1823ZM31.1758 40.7432C31.6611 40.3192 32.0618 39.7617 32.4078 39.1823L30.6907 38.1568C30.3917 38.6576 30.1175 39.012 29.8599 39.2371L31.1758 40.7432ZM29.2112 41.5309C30.0139 41.5309 30.6717 41.1836 31.1758 40.7432L29.8599 39.2371C29.6089 39.4564 29.4002 39.5309 29.2112 39.5309V41.5309ZM27.8739 41.2415C28.3859 41.513 28.9061 41.5309 29.2112 41.5309V39.5309C28.9752 39.5309 28.8701 39.506 28.8106 39.4745L27.8739 41.2415ZM26.7571 39.9262C26.9588 40.4434 27.3004 40.9375 27.8739 41.2415L28.8106 39.4745C28.7745 39.4553 28.7013 39.4069 28.6205 39.1995L26.7571 39.9262ZM26.4159 38.2422C26.4731 38.8726 26.5696 39.4453 26.7571 39.9262L28.6205 39.1995C28.5346 38.9795 28.459 38.6266 28.4077 38.0614L26.4159 38.2422ZM26.3324 35.799C26.3324 36.791 26.3572 37.5953 26.4159 38.2422L28.4077 38.0614C28.3569 37.5021 28.3324 36.7667 28.3324 35.799H26.3324ZM26.0571 31.8293C26.2582 32.5214 26.3324 33.7374 26.3324 35.799H28.3324C28.3324 33.7972 28.2724 32.2854 27.9776 31.2711L26.0571 31.8293ZM25.9265 31.5027C25.8886 31.4698 25.9644 31.5103 26.0571 31.8293L27.9776 31.2711C27.8273 30.754 27.6005 30.3074 27.2376 29.9924L25.9265 31.5027ZM25.8942 31.5335C25.9759 31.5335 26.0003 31.5438 25.9903 31.5405C25.985 31.5387 25.9743 31.5346 25.9608 31.5269C25.9473 31.5192 25.9355 31.5105 25.9265 31.5027L27.2376 29.9924C26.8639 29.6679 26.4047 29.5335 25.8942 29.5335V31.5335ZM25.8619 31.5027C25.8529 31.5105 25.8411 31.5192 25.8276 31.5269C25.8141 31.5346 25.8035 31.5387 25.7982 31.5405C25.7881 31.5438 25.8125 31.5335 25.8942 31.5335V29.5335C25.3838 29.5335 24.9246 29.6679 24.5508 29.9924L25.8619 31.5027ZM25.7313 31.8293C25.824 31.5103 25.8998 31.4698 25.8619 31.5027L24.5508 29.9924C24.1879 30.3074 23.9611 30.754 23.8108 31.2711L25.7313 31.8293ZM25.4561 35.799C25.4561 33.7374 25.5302 32.5214 25.7313 31.8293L23.8108 31.2711C23.516 32.2854 23.4561 33.7972 23.4561 35.799H25.4561ZM25.3725 38.2422C25.4312 37.5953 25.4561 36.791 25.4561 35.799H23.4561C23.4561 36.7667 23.4315 37.5021 23.3807 38.0614L25.3725 38.2422ZM25.0313 39.9262C25.2189 39.4453 25.3153 38.8726 25.3725 38.2422L23.3807 38.0614C23.3294 38.6266 23.2538 38.9795 23.168 39.1995L25.0313 39.9262ZM23.9145 41.2415C24.4881 40.9375 24.8296 40.4434 25.0313 39.9262L23.168 39.1995C23.0871 39.4069 23.0139 39.4553 22.9778 39.4745L23.9145 41.2415ZM22.5772 41.5309C22.8823 41.5309 23.4025 41.513 23.9145 41.2415L22.9778 39.4745C22.9183 39.506 22.8132 39.5309 22.5772 39.5309V41.5309ZM20.6207 40.7388C21.1183 41.1776 21.7732 41.5309 22.5772 41.5309V39.5309C22.3966 39.5309 22.1928 39.4586 21.9434 39.2387L20.6207 40.7388ZM19.398 39.1823C19.7429 39.7598 20.1407 40.3157 20.6207 40.7388L21.9434 39.2387C21.6878 39.0133 21.4146 38.6583 21.1151 38.1568L19.398 39.1823ZM17.2656 34.6602C18.0269 36.4327 18.713 38.0353 19.398 39.1823L21.1151 38.1568C20.5143 37.1508 19.8861 35.6935 19.1033 33.8709L17.2656 34.6602ZM17.2641 34.6568L17.2643 34.6571L19.1046 33.874L19.1045 33.8737L17.2641 34.6568ZM14.0562 27.6437C15.402 30.3126 16.4299 32.7103 17.2652 34.6591L19.1034 33.8713C18.2685 31.923 17.2188 29.4736 15.8419 26.7432L14.0562 27.6437ZM14.0546 27.6406L14.0553 27.642L15.8428 26.7449L15.8421 26.7435L14.0546 27.6406ZM13.8928 27.3169L14.0539 27.6392L15.8428 26.7448L15.6816 26.4225L13.8928 27.3169ZM13.8947 27.3209L13.8954 27.3221L15.6791 26.4174L15.6784 26.4162L13.8947 27.3209ZM13.8265 27.1865C13.8495 27.2318 13.8723 27.2766 13.8948 27.321L15.6783 26.416C15.6555 26.371 15.6325 26.3258 15.6095 26.2805L13.8265 27.1865ZM12.0437 21.4871C12.0437 23.7164 13.0818 25.7207 13.8265 27.1865L15.6095 26.2805C14.8272 24.7406 14.0437 23.1598 14.0437 21.4871H12.0437ZM20.188 11.9278C15.3677 11.9278 12.0437 16.4122 12.0437 21.4871H14.0437C14.0437 17.1321 16.8212 13.9278 20.188 13.9278V11.9278ZM20.2038 11.9279L20.1962 11.9279L20.1799 13.9278L20.1875 13.9279L20.2038 11.9279ZM25.0641 13.5547C23.6203 12.4829 21.9075 11.9558 20.212 11.928L20.1792 13.9278C21.4863 13.9492 22.7871 14.3552 23.872 15.1606L25.0641 13.5547ZM26.456 14.2376C25.9488 14.0592 25.4665 13.8204 25.0214 13.5247L23.9147 15.1906C24.5011 15.5802 25.1327 15.8923 25.7925 16.1243L26.456 14.2376ZM16.5076 25.9997L16.4761 25.9378L14.6927 26.8429L14.7241 26.9049L16.5076 25.9997ZM24.7344 4H26.2421V2H24.7344V4ZM25.2421 3V6.01546H27.2421V3H25.2421ZM26.2421 5.01546H24.7344V7.01546H26.2421V5.01546ZM25.7344 6.01546V3H23.7344V6.01546H25.7344ZM30.7812 6.71144L31.5466 3.81196L29.6129 3.30145L28.8474 6.20093L30.7812 6.71144ZM30.3193 4.52217L31.7806 4.9165L32.3016 2.98556L30.8403 2.59123L30.3193 4.52217ZM31.0742 3.69578L30.3088 6.59526L32.2425 7.10577L33.008 4.20629L31.0742 3.69578ZM31.5362 5.88505L30.0748 5.49072L29.5538 7.42165L31.0151 7.81598L31.5362 5.88505ZM35.4556 8.72439L36.9633 6.14965L35.2375 5.13901L33.7297 7.71375L35.4556 8.72439ZM35.6043 6.51257L36.9032 7.25484L37.8955 5.51835L36.5965 4.77609L35.6043 6.51257ZM36.5364 5.88128L35.0287 8.45602L36.7546 9.46666L38.2623 6.89192L36.5364 5.88128ZM36.3878 8.0931L35.0888 7.35083L34.0965 9.08731L35.3955 9.82958L36.3878 8.0931ZM39.4286 11.8953L41.5395 9.78443L40.1252 8.37021L38.0144 10.481L39.4286 11.8953ZM40.1252 9.78443L41.1923 10.8514L42.6065 9.43722L41.5395 8.37021L40.1252 9.78443ZM41.1923 9.43722L39.0814 11.548L40.4956 12.9623L42.6065 10.8514L41.1923 9.43722ZM40.4956 11.548L39.4286 10.481L38.0144 11.8953L39.0814 12.9623L40.4956 11.548ZM42.4975 15.948L45.0722 14.4403L44.0616 12.7144L41.4868 14.2221L42.4975 15.948ZM43.6986 14.0735L44.4409 15.3724L46.1774 14.3802L45.4351 13.0812L43.6986 14.0735ZM44.8038 14.0134L42.2291 15.5211L43.2397 17.247L45.8145 15.7392L44.8038 14.0134ZM43.6027 15.8879L42.8604 14.5889L41.1239 15.5812L41.8662 16.8802L43.6027 15.8879ZM44.3582 20.6911L47.2577 19.9256L46.7472 17.9919L43.8477 18.7574L44.3582 20.6911ZM46.037 19.2193L46.4313 20.6806L48.3623 20.1596L47.9679 18.6982L46.037 19.2193ZM47.1415 19.4532L44.242 20.2187L44.7526 22.1524L47.652 21.387L47.1415 19.4532ZM45.4628 20.925L45.0684 19.4637L43.1375 19.9847L43.5318 21.4461L45.4628 20.925ZM44.9844 25.7345H47.9999V23.7345H44.9844V25.7345ZM46.9999 24.7345V26.2423H48.9999V24.7345H46.9999ZM47.9999 25.2423H44.9844V27.2423H47.9999V25.2423ZM45.9844 26.2423V24.7345H43.9844V26.2423H45.9844ZM45.0684 31.5131L45.4628 30.0518L43.5318 29.5307L43.1375 30.9921L45.0684 31.5131ZM44.2421 30.7581L47.1415 31.5236L47.652 29.5898L44.7526 28.8244L44.2421 30.7581ZM46.4313 30.2962L46.037 31.7575L47.9679 32.2786L48.3623 30.8172L46.4313 30.2962ZM47.2577 31.0512L44.3582 30.2857L43.8477 32.2194L46.7472 32.9849L47.2577 31.0512ZM42.8604 36.3647L43.6027 35.0657L41.8662 34.0735L41.1239 35.3724L42.8604 36.3647ZM42.2291 35.4325L44.8038 36.9403L45.8145 35.2144L43.2397 33.7067L42.2291 35.4325ZM44.4409 35.5812L43.6986 36.8802L45.4351 37.8724L46.1774 36.5735L44.4409 35.5812ZM45.0722 36.5134L42.4975 35.0056L41.4868 36.7315L44.0616 38.2392L45.0722 36.5134ZM39.4286 40.519L40.4956 39.452L39.0814 38.0377L38.0144 39.1048L39.4286 40.519ZM39.0814 39.452L41.1923 41.5628L42.6065 40.1486L40.4956 38.0377L39.0814 39.452ZM41.1923 40.1486L40.1252 41.2156L41.5395 42.6298L42.6065 41.5628L41.1923 40.1486ZM41.5395 41.2156L39.4286 39.1048L38.0144 40.519L40.1252 42.6298L41.5395 41.2156ZM35.0888 43.6028L36.3878 42.8605L35.3955 41.124L34.0965 41.8663L35.0888 43.6028ZM35.0287 42.4976L36.5364 45.0723L38.2623 44.0617L36.7546 41.4869L35.0287 42.4976ZM36.9032 43.6988L35.6043 44.441L36.5965 46.1775L37.8955 45.4353L36.9032 43.6988ZM36.9633 44.804L35.4556 42.2292L33.7297 43.2399L35.2375 45.8146L36.9633 44.804ZM30.0748 45.4629L31.5362 45.0686L31.0151 43.1376L29.5538 43.532L30.0748 45.4629ZM30.3088 44.3583L31.0742 47.2578L33.008 46.7473L32.2425 43.8478L30.3088 44.3583ZM31.7806 46.0371L30.3193 46.4314L30.8403 48.3624L32.3016 47.968L31.7806 46.0371ZM31.5466 47.1417L30.7812 44.2422L28.8474 44.7527L29.6129 47.6522L31.5466 47.1417ZM24.7344 45.9845H26.2421V43.9845H24.7344V45.9845ZM25.2421 44.9845V48H27.2421V44.9845H25.2421ZM26.2421 47H24.7344V49H26.2421V47ZM25.7344 48V44.9845H23.7344V48H25.7344ZM19.9023 47.2578L20.6678 44.3583L18.734 43.8478L17.9686 46.7473L19.9023 47.2578ZM19.4404 45.0686L20.9017 45.4629L21.4228 43.532L19.9614 43.1376L19.4404 45.0686ZM20.1954 44.2422L19.4299 47.1417L21.3637 47.6522L22.1291 44.7527L20.1954 44.2422ZM20.6573 46.4314L19.196 46.0371L18.6749 47.968L20.1363 48.3624L20.6573 46.4314ZM14.4401 45.0955L15.9479 42.5208L14.222 41.5101L12.7143 44.0849L14.4401 45.0955ZM14.5888 42.8837L15.8878 43.626L16.88 41.8895L15.5811 41.1472L14.5888 42.8837ZM15.521 42.2524L14.0132 44.8272L15.7391 45.8378L17.2468 43.2631L15.521 42.2524ZM15.3723 44.4642L14.0733 43.722L13.0811 45.4585L14.38 46.2007L15.3723 44.4642ZM9.76111 41.5628L11.8719 39.452L10.4577 38.0377L8.34689 40.1486L9.76111 41.5628ZM10.4577 39.452L11.5247 40.519L12.9389 39.1048L11.8719 38.0377L10.4577 39.452ZM11.5247 39.1048L9.41391 41.2156L10.8281 42.6298L12.9389 40.519L11.5247 39.1048ZM10.8281 41.2156L9.76111 40.1486L8.3469 41.5628L9.41391 42.6298L10.8281 41.2156ZM6.14953 36.9635L8.72427 35.4557L7.71363 33.7299L5.13889 35.2376L6.14953 36.9635ZM7.35071 35.0889L8.09298 36.3879L9.82946 35.3956L9.08719 34.0966L7.35071 35.0889ZM8.4559 35.0288L5.88116 36.5366L6.8918 38.2624L9.46654 36.7547L8.4559 35.0288ZM7.25472 36.9033L6.51245 35.6044L4.77597 36.5967L5.51823 37.8956L7.25472 36.9033ZM3.81183 31.5468L6.71132 30.7813L6.20081 28.8476L3.30132 29.613L3.81183 31.5468ZM5.4906 30.075L5.88493 31.5363L7.81586 31.0153L7.42153 29.5539L5.4906 30.075ZM6.59514 30.3089L3.69565 31.0744L4.20616 33.0081L7.10565 32.2426L6.59514 30.3089ZM4.91638 31.7807L4.52205 30.3194L2.59111 30.8404L2.98544 32.3018L4.91638 31.7807ZM2.99988 25.7345H6.01534V23.7345H2.99988V25.7345ZM5.01534 24.7345V26.2423H7.01534V24.7345H5.01534ZM6.01534 25.2423H2.99988V27.2423H6.01534V25.2423ZM3.99988 26.2423V24.7345H1.99988V26.2423H3.99988ZM4.52205 20.6574L4.91638 19.1961L2.98544 18.675L2.59111 20.1364L4.52205 20.6574ZM3.69565 19.9024L6.59514 20.6679L7.10565 18.7342L4.20616 17.9687L3.69565 19.9024ZM5.88493 19.4405L5.4906 20.9018L7.42153 21.4229L7.81586 19.9616L5.88493 19.4405ZM6.71132 20.1955L3.81183 19.43L3.30133 21.3638L6.20081 22.1292L6.71132 20.1955ZM6.51245 15.3956L7.25472 14.0967L5.51823 13.1044L4.77596 14.4033L6.51245 15.3956ZM5.88116 14.4634L8.4559 15.9712L9.46654 14.2453L6.8918 12.7376L5.88116 14.4634ZM8.09298 14.6121L7.35071 15.9111L9.08719 16.9034L9.82946 15.6044L8.09298 14.6121ZM8.72427 15.5443L6.14953 14.0366L5.13889 15.7624L7.71363 17.2701L8.72427 15.5443ZM9.76111 10.805L10.8281 9.73804L9.41391 8.32382L8.3469 9.39083L9.76111 10.805ZM9.41391 9.73803L11.5247 11.8489L12.9389 10.4346L10.8281 8.32382L9.41391 9.73803ZM11.5247 10.4346L10.4577 11.5017L11.8719 12.9159L12.9389 11.8489L11.5247 10.4346ZM11.8719 11.5017L9.76111 9.39083L8.34689 10.805L10.4577 12.9159L11.8719 11.5017ZM14.0733 7.25484L15.3723 6.51257L14.38 4.77609L13.0811 5.51835L14.0733 7.25484ZM14.0132 6.14965L15.521 8.72439L17.2468 7.71375L15.7391 5.13901L14.0132 6.14965ZM15.8878 7.35083L14.5888 8.0931L15.5811 9.82958L16.88 9.08732L15.8878 7.35083ZM15.9479 8.45602L14.4401 5.88128L12.7143 6.89192L14.222 9.46666L15.9479 8.45602ZM19.196 4.9165L20.6573 4.52217L20.1363 2.59123L18.6749 2.98556L19.196 4.9165ZM19.4299 3.81196L20.1954 6.71144L22.1291 6.20093L21.3637 3.30145L19.4299 3.81196ZM20.9017 5.49072L19.4404 5.88505L19.9614 7.81598L21.4228 7.42165L20.9017 5.49072ZM20.6678 6.59526L19.9023 3.69578L17.9686 4.20629L18.734 7.10577L20.6678 6.59526Z" fill="white" mask="url(#path-1-inside-1_4382_49)"/>
</svg>
