<svg
  width="50"
  height="50"
  viewBox="0 0 50 50"
  fill="none"
  xmlns="http://www.w3.org/2000/svg"
>
  <mask id="path-1-inside-1_4382_86" fill="white">
    <path
      d="M32.1195 18.4873L27.9298 17.3694L25.5678 13.7453C25.3648 13.4338 24.8493 13.4338 24.6464 13.7453L22.2843 17.3694L18.0946 18.4873C17.9146 18.5353 17.7708 18.6715 17.7134 18.8489C17.6559 19.0265 17.6921 19.2209 17.8097 19.3656L20.5388 22.7229L20.3117 27.0366C20.3018 27.2224 20.3868 27.4007 20.5372 27.5102C20.6876 27.6198 20.8839 27.6454 21.0574 27.5793L25.1071 26.0301L29.1568 27.5793C29.2206 27.6039 29.287 27.6157 29.3534 27.6157C29.4681 27.6157 29.5816 27.5801 29.6768 27.5104C29.8272 27.4009 29.9124 27.2226 29.9024 27.0368L29.6752 22.723L32.4043 19.3658C32.5219 19.221 32.5583 19.0268 32.5008 18.8493C32.4434 18.6715 32.2996 18.5355 32.1196 18.4873L32.1195 18.4873ZM28.6882 22.1932C28.6023 22.299 28.5586 22.4331 28.5658 22.5691L28.7596 26.2496L25.3036 24.9275C25.2402 24.9035 25.1737 24.8913 25.1071 24.8913C25.0405 24.8913 24.9739 24.9035 24.9105 24.9277L21.4545 26.2497L21.6484 22.5693C21.6557 22.4331 21.6119 22.2992 21.5259 22.1934L19.1989 19.3311L22.7718 18.3778C22.903 18.3427 23.0166 18.2605 23.0907 18.1465L25.1071 15.0526L27.1235 18.1463C27.1976 18.2602 27.3112 18.3423 27.4424 18.3776L31.0153 19.3309L28.6882 22.1932Z"
    />
    <path
      d="M41.0471 27.0923C41.0664 26.4694 41.085 25.8812 41.222 25.3684C41.3625 24.842 41.6435 24.3143 41.941 23.7559C42.4017 22.8908 42.8782 21.9962 42.8782 20.9913C42.8782 19.9865 42.4017 19.0919 41.9406 18.2268C41.6431 17.6683 41.3623 17.1407 41.2216 16.6143C41.0847 16.1015 41.0664 15.5135 41.0467 14.8906C41.0159 13.9025 40.9843 12.8808 40.4711 11.9935C39.9794 11.1433 39.1286 10.6122 38.3056 10.0987C37.7588 9.75734 37.2422 9.43499 36.8427 9.03546C36.4432 8.63559 36.1206 8.1192 35.7795 7.57217C35.266 6.74952 34.7349 5.89874 33.8846 5.40707C32.997 4.8939 31.9751 4.86201 30.9871 4.83108C30.3642 4.81157 29.7762 4.79313 29.2634 4.6562C28.7366 4.51569 28.209 4.23467 27.6505 3.9372C26.7858 3.47646 25.891 3 24.8865 3C23.8816 3 22.987 3.47646 22.122 3.9372C21.5635 4.23469 21.0358 4.5159 20.5094 4.6562C19.9966 4.79313 19.4084 4.81157 18.7857 4.83108C17.7977 4.86187 16.7758 4.89391 15.8884 5.40707C15.0381 5.89874 14.5071 6.74953 13.9935 7.57254C13.6522 8.11938 13.3298 8.63594 12.9303 9.03546C12.5308 9.43499 12.0142 9.75753 11.4674 10.0987C10.6446 10.612 9.79363 11.1431 9.30191 11.9935C8.78875 12.8808 8.75685 13.9029 8.72592 14.8909C8.70659 15.5138 8.68798 16.102 8.55105 16.6148C8.41054 17.1412 8.12952 17.6689 7.83205 18.2273C7.3713 19.0924 6.89484 19.987 6.89484 20.9918C6.89484 21.9967 7.3713 22.8913 7.83242 23.7564C8.1299 24.3149 8.41074 24.8425 8.55141 25.3689C8.68834 25.8817 8.7066 26.4697 8.72629 27.0926C8.75708 28.0807 8.78876 29.1024 9.30191 29.99C9.47482 30.2891 9.69391 30.547 9.93893 30.7802L5.0781 38.9004C4.97804 39.0676 4.97392 39.2758 5.06736 39.4467C5.16115 39.6178 5.33835 39.7265 5.53328 39.7324L13.5105 39.9724L17.0916 46.6423C17.185 46.8165 17.3653 46.9271 17.5631 46.9318C17.5674 46.9321 17.5717 46.9321 17.576 46.9321C17.7689 46.9321 17.9484 46.831 18.0478 46.6647L22.9535 38.4698C23.5639 38.7584 24.1992 38.9834 24.8868 38.9834C25.6343 38.9834 26.3206 38.7193 26.9793 38.3946L31.9519 46.7018C32.0512 46.8681 32.2306 46.9692 32.4237 46.9692C32.428 46.9692 32.4323 46.9692 32.4366 46.9688C32.6346 46.9642 32.8147 46.8536 32.9081 46.6794L36.4896 40.0095L44.4668 39.7695C44.6617 39.7635 44.8389 39.6547 44.9327 39.4838C45.0261 39.3127 45.0222 39.1047 44.922 38.9375L39.9621 30.6519C40.1547 30.4523 40.3293 30.2356 40.4714 29.9898C40.9842 29.1024 41.0162 28.0805 41.047 27.0925L41.0471 27.0923ZM17.6021 45.2682L14.3292 39.1725C14.2363 38.9994 14.058 38.8889 13.8615 38.883L6.50285 38.6616L10.8114 31.4643C11.0273 31.6093 11.248 31.748 11.4672 31.8848C12.014 32.2261 12.5306 32.5484 12.9305 32.948C13.3304 33.3478 13.6527 33.8642 13.9939 34.4116C14.5074 35.2342 15.0383 36.0848 15.8884 36.5763C16.776 37.0895 17.7979 37.1214 18.7859 37.1523C19.4088 37.1718 19.9968 37.1903 20.5096 37.3272C20.9888 37.4552 21.4695 37.7004 21.9729 37.9673L17.6021 45.2682ZM36.1386 38.92C35.9421 38.9259 35.7638 39.0363 35.6709 39.2094L32.3978 45.3052L27.9559 37.8852C28.403 37.6508 28.8342 37.4414 29.2638 37.3269C29.7766 37.1899 30.3646 37.1717 30.9875 37.152C31.9755 37.1212 32.9974 37.0891 33.8848 36.576C34.7351 36.0843 35.2661 35.2335 35.7797 34.4105C36.121 33.8637 36.4434 33.3471 36.8429 32.9476C37.2424 32.5481 37.759 32.2255 38.3058 31.8844C38.5747 31.7167 38.8453 31.5457 39.1067 31.3639L43.497 38.6982L36.1386 38.92ZM39.948 27.0584C39.92 27.9498 39.8937 28.7918 39.5191 29.4396C39.1647 30.0526 38.4646 30.4894 37.7238 30.9517C37.1485 31.3106 36.5537 31.682 36.0652 32.1705C35.5768 32.659 35.2055 33.2536 34.8464 33.829C34.3841 34.5701 33.9474 35.2701 33.3343 35.6244C32.6863 35.9992 31.8443 36.0255 30.9531 36.0532C30.2954 36.074 29.6155 36.0951 28.9803 36.2644C28.3316 36.4375 27.7228 36.762 27.1341 37.0756C26.3539 37.4912 25.617 37.8838 24.8867 37.8838C24.1567 37.8838 23.4194 37.4913 22.6392 37.0756C22.0507 36.762 21.4417 36.4379 20.7931 36.2644C20.1579 36.0949 19.478 36.0738 18.8202 36.0532C17.9288 36.0255 17.0868 35.9993 16.4387 35.6244C15.826 35.2701 15.3894 34.5703 14.9269 33.8292C14.568 33.2539 14.1966 32.6588 13.7079 32.1705C13.2195 31.6818 12.6247 31.3108 12.0494 30.9517C11.3084 30.4894 10.6083 30.0526 10.2541 29.4399C9.87963 28.792 9.85331 27.95 9.82557 27.0588C9.80481 26.401 9.78368 25.7212 9.61436 25.0859C9.44091 24.4372 9.11677 23.8283 8.80316 23.2398C8.38718 22.4595 7.99481 21.7226 7.99481 20.9923C7.99481 20.262 8.38734 19.5251 8.80298 18.7449C9.11658 18.1559 9.44092 17.5474 9.61417 16.8987C9.78368 16.2635 9.8048 15.5835 9.82539 14.9257C9.85331 14.0343 9.87962 13.1923 10.2543 12.5445C10.6087 11.9314 11.3087 11.4947 12.0496 11.0324C12.6249 10.6735 13.2196 10.302 13.7081 9.81357C14.1966 9.32511 14.5678 8.73047 14.9269 8.15503C15.3892 7.41399 15.826 6.71397 16.439 6.35971C17.087 5.98526 17.929 5.95895 18.8202 5.93084C19.4778 5.91008 20.1578 5.88896 20.7931 5.71963C21.4417 5.54655 22.0505 5.22205 22.6392 4.90844C23.4191 4.49264 24.1562 4.10008 24.8865 4.10008C25.6168 4.10008 26.3535 4.49262 27.1337 4.90825C27.7227 5.22185 28.3312 5.54619 28.9803 5.71945C29.6155 5.88895 30.2953 5.91008 30.9531 5.93066C31.8445 5.95841 32.6865 5.98454 33.3347 6.35953C33.9473 6.71394 34.3841 7.414 34.8468 8.15485C35.2057 8.73015 35.5771 9.32493 36.0656 9.81339C36.554 10.3019 37.1487 10.6731 37.7241 11.0322C38.4652 11.4945 39.1652 11.9313 39.5194 12.5443C39.8939 13.1923 39.9202 14.0339 39.948 14.9253C39.9687 15.5831 39.9898 16.2633 40.1592 16.8982C40.3326 17.5468 40.6567 18.1558 40.9704 18.7443C41.3863 19.5245 41.7787 20.2614 41.7787 20.9918C41.7787 21.7221 41.3862 22.459 40.9705 23.2392C40.6569 23.8281 40.3326 24.4367 40.1593 25.0853C39.9898 25.7206 39.9685 26.4006 39.948 27.0584Z"
    />
    <path
      d="M24.8869 7.86067C21.3794 7.86067 18.0818 9.22641 15.6019 11.7065C13.1216 14.1865 11.7559 17.4843 11.7559 20.9915C11.7559 24.4991 13.1216 27.7966 15.6019 30.2765C18.0819 32.7565 21.3792 34.1224 24.8869 34.1224C28.3943 34.1224 31.6915 32.7567 34.1714 30.2765C36.6518 27.7966 38.0175 24.4992 38.0175 20.9915C38.0175 17.4841 36.6518 14.1865 34.1714 11.7065C31.6915 9.22659 28.3942 7.86067 24.8869 7.86067ZM33.3943 29.4989C28.703 34.1907 21.0708 34.1902 16.3795 29.4989C14.107 27.2264 12.8557 24.2055 12.8557 20.9915C12.8557 17.7779 14.1071 14.7565 16.3795 12.4841C18.7251 10.1386 21.8058 8.96623 24.8869 8.96623C27.9676 8.96623 31.0482 10.1386 33.3938 12.4841C35.6664 14.7567 36.9177 17.778 36.9177 20.9915C36.9179 24.2054 35.6665 27.2266 33.394 29.4989H33.3943Z"
    />
  </mask>
  <path
    d="M32.1195 18.4873L27.9298 17.3694L25.5678 13.7453C25.3648 13.4338 24.8493 13.4338 24.6464 13.7453L22.2843 17.3694L18.0946 18.4873C17.9146 18.5353 17.7708 18.6715 17.7134 18.8489C17.6559 19.0265 17.6921 19.2209 17.8097 19.3656L20.5388 22.7229L20.3117 27.0366C20.3018 27.2224 20.3868 27.4007 20.5372 27.5102C20.6876 27.6198 20.8839 27.6454 21.0574 27.5793L25.1071 26.0301L29.1568 27.5793C29.2206 27.6039 29.287 27.6157 29.3534 27.6157C29.4681 27.6157 29.5816 27.5801 29.6768 27.5104C29.8272 27.4009 29.9124 27.2226 29.9024 27.0368L29.6752 22.723L32.4043 19.3658C32.5219 19.221 32.5583 19.0268 32.5008 18.8493C32.4434 18.6715 32.2996 18.5355 32.1196 18.4873L32.1195 18.4873ZM28.6882 22.1932C28.6023 22.299 28.5586 22.4331 28.5658 22.5691L28.7596 26.2496L25.3036 24.9275C25.2402 24.9035 25.1737 24.8913 25.1071 24.8913C25.0405 24.8913 24.9739 24.9035 24.9105 24.9277L21.4545 26.2497L21.6484 22.5693C21.6557 22.4331 21.6119 22.2992 21.5259 22.1934L19.1989 19.3311L22.7718 18.3778C22.903 18.3427 23.0166 18.2605 23.0907 18.1465L25.1071 15.0526L27.1235 18.1463C27.1976 18.2602 27.3112 18.3423 27.4424 18.3776L31.0153 19.3309L28.6882 22.1932Z"
    fill="white"
  />
  <path
    d="M41.0471 27.0923C41.0664 26.4694 41.085 25.8812 41.222 25.3684C41.3625 24.842 41.6435 24.3143 41.941 23.7559C42.4017 22.8908 42.8782 21.9962 42.8782 20.9913C42.8782 19.9865 42.4017 19.0919 41.9406 18.2268C41.6431 17.6683 41.3623 17.1407 41.2216 16.6143C41.0847 16.1015 41.0664 15.5135 41.0467 14.8906C41.0159 13.9025 40.9843 12.8808 40.4711 11.9935C39.9794 11.1433 39.1286 10.6122 38.3056 10.0987C37.7588 9.75734 37.2422 9.43499 36.8427 9.03546C36.4432 8.63559 36.1206 8.1192 35.7795 7.57217C35.266 6.74952 34.7349 5.89874 33.8846 5.40707C32.997 4.8939 31.9751 4.86201 30.9871 4.83108C30.3642 4.81157 29.7762 4.79313 29.2634 4.6562C28.7366 4.51569 28.209 4.23467 27.6505 3.9372C26.7858 3.47646 25.891 3 24.8865 3C23.8816 3 22.987 3.47646 22.122 3.9372C21.5635 4.23469 21.0358 4.5159 20.5094 4.6562C19.9966 4.79313 19.4084 4.81157 18.7857 4.83108C17.7977 4.86187 16.7758 4.89391 15.8884 5.40707C15.0381 5.89874 14.5071 6.74953 13.9935 7.57254C13.6522 8.11938 13.3298 8.63594 12.9303 9.03546C12.5308 9.43499 12.0142 9.75753 11.4674 10.0987C10.6446 10.612 9.79363 11.1431 9.30191 11.9935C8.78875 12.8808 8.75685 13.9029 8.72592 14.8909C8.70659 15.5138 8.68798 16.102 8.55105 16.6148C8.41054 17.1412 8.12952 17.6689 7.83205 18.2273C7.3713 19.0924 6.89484 19.987 6.89484 20.9918C6.89484 21.9967 7.3713 22.8913 7.83242 23.7564C8.1299 24.3149 8.41074 24.8425 8.55141 25.3689C8.68834 25.8817 8.7066 26.4697 8.72629 27.0926C8.75708 28.0807 8.78876 29.1024 9.30191 29.99C9.47482 30.2891 9.69391 30.547 9.93893 30.7802L5.0781 38.9004C4.97804 39.0676 4.97392 39.2758 5.06736 39.4467C5.16115 39.6178 5.33835 39.7265 5.53328 39.7324L13.5105 39.9724L17.0916 46.6423C17.185 46.8165 17.3653 46.9271 17.5631 46.9318C17.5674 46.9321 17.5717 46.9321 17.576 46.9321C17.7689 46.9321 17.9484 46.831 18.0478 46.6647L22.9535 38.4698C23.5639 38.7584 24.1992 38.9834 24.8868 38.9834C25.6343 38.9834 26.3206 38.7193 26.9793 38.3946L31.9519 46.7018C32.0512 46.8681 32.2306 46.9692 32.4237 46.9692C32.428 46.9692 32.4323 46.9692 32.4366 46.9688C32.6346 46.9642 32.8147 46.8536 32.9081 46.6794L36.4896 40.0095L44.4668 39.7695C44.6617 39.7635 44.8389 39.6547 44.9327 39.4838C45.0261 39.3127 45.0222 39.1047 44.922 38.9375L39.9621 30.6519C40.1547 30.4523 40.3293 30.2356 40.4714 29.9898C40.9842 29.1024 41.0162 28.0805 41.047 27.0925L41.0471 27.0923ZM17.6021 45.2682L14.3292 39.1725C14.2363 38.9994 14.058 38.8889 13.8615 38.883L6.50285 38.6616L10.8114 31.4643C11.0273 31.6093 11.248 31.748 11.4672 31.8848C12.014 32.2261 12.5306 32.5484 12.9305 32.948C13.3304 33.3478 13.6527 33.8642 13.9939 34.4116C14.5074 35.2342 15.0383 36.0848 15.8884 36.5763C16.776 37.0895 17.7979 37.1214 18.7859 37.1523C19.4088 37.1718 19.9968 37.1903 20.5096 37.3272C20.9888 37.4552 21.4695 37.7004 21.9729 37.9673L17.6021 45.2682ZM36.1386 38.92C35.9421 38.9259 35.7638 39.0363 35.6709 39.2094L32.3978 45.3052L27.9559 37.8852C28.403 37.6508 28.8342 37.4414 29.2638 37.3269C29.7766 37.1899 30.3646 37.1717 30.9875 37.152C31.9755 37.1212 32.9974 37.0891 33.8848 36.576C34.7351 36.0843 35.2661 35.2335 35.7797 34.4105C36.121 33.8637 36.4434 33.3471 36.8429 32.9476C37.2424 32.5481 37.759 32.2255 38.3058 31.8844C38.5747 31.7167 38.8453 31.5457 39.1067 31.3639L43.497 38.6982L36.1386 38.92ZM39.948 27.0584C39.92 27.9498 39.8937 28.7918 39.5191 29.4396C39.1647 30.0526 38.4646 30.4894 37.7238 30.9517C37.1485 31.3106 36.5537 31.682 36.0652 32.1705C35.5768 32.659 35.2055 33.2536 34.8464 33.829C34.3841 34.5701 33.9474 35.2701 33.3343 35.6244C32.6863 35.9992 31.8443 36.0255 30.9531 36.0532C30.2954 36.074 29.6155 36.0951 28.9803 36.2644C28.3316 36.4375 27.7228 36.762 27.1341 37.0756C26.3539 37.4912 25.617 37.8838 24.8867 37.8838C24.1567 37.8838 23.4194 37.4913 22.6392 37.0756C22.0507 36.762 21.4417 36.4379 20.7931 36.2644C20.1579 36.0949 19.478 36.0738 18.8202 36.0532C17.9288 36.0255 17.0868 35.9993 16.4387 35.6244C15.826 35.2701 15.3894 34.5703 14.9269 33.8292C14.568 33.2539 14.1966 32.6588 13.7079 32.1705C13.2195 31.6818 12.6247 31.3108 12.0494 30.9517C11.3084 30.4894 10.6083 30.0526 10.2541 29.4399C9.87963 28.792 9.85331 27.95 9.82557 27.0588C9.80481 26.401 9.78368 25.7212 9.61436 25.0859C9.44091 24.4372 9.11677 23.8283 8.80316 23.2398C8.38718 22.4595 7.99481 21.7226 7.99481 20.9923C7.99481 20.262 8.38734 19.5251 8.80298 18.7449C9.11658 18.1559 9.44092 17.5474 9.61417 16.8987C9.78368 16.2635 9.8048 15.5835 9.82539 14.9257C9.85331 14.0343 9.87962 13.1923 10.2543 12.5445C10.6087 11.9314 11.3087 11.4947 12.0496 11.0324C12.6249 10.6735 13.2196 10.302 13.7081 9.81357C14.1966 9.32511 14.5678 8.73047 14.9269 8.15503C15.3892 7.41399 15.826 6.71397 16.439 6.35971C17.087 5.98526 17.929 5.95895 18.8202 5.93084C19.4778 5.91008 20.1578 5.88896 20.7931 5.71963C21.4417 5.54655 22.0505 5.22205 22.6392 4.90844C23.4191 4.49264 24.1562 4.10008 24.8865 4.10008C25.6168 4.10008 26.3535 4.49262 27.1337 4.90825C27.7227 5.22185 28.3312 5.54619 28.9803 5.71945C29.6155 5.88895 30.2953 5.91008 30.9531 5.93066C31.8445 5.95841 32.6865 5.98454 33.3347 6.35953C33.9473 6.71394 34.3841 7.414 34.8468 8.15485C35.2057 8.73015 35.5771 9.32493 36.0656 9.81339C36.554 10.3019 37.1487 10.6731 37.7241 11.0322C38.4652 11.4945 39.1652 11.9313 39.5194 12.5443C39.8939 13.1923 39.9202 14.0339 39.948 14.9253C39.9687 15.5831 39.9898 16.2633 40.1592 16.8982C40.3326 17.5468 40.6567 18.1558 40.9704 18.7443C41.3863 19.5245 41.7787 20.2614 41.7787 20.9918C41.7787 21.7221 41.3862 22.459 40.9705 23.2392C40.6569 23.8281 40.3326 24.4367 40.1593 25.0853C39.9898 25.7206 39.9685 26.4006 39.948 27.0584Z"
    fill="white"
  />
  <path
    d="M24.8869 7.86067C21.3794 7.86067 18.0818 9.22641 15.6019 11.7065C13.1216 14.1865 11.7559 17.4843 11.7559 20.9915C11.7559 24.4991 13.1216 27.7966 15.6019 30.2765C18.0819 32.7565 21.3792 34.1224 24.8869 34.1224C28.3943 34.1224 31.6915 32.7567 34.1714 30.2765C36.6518 27.7966 38.0175 24.4992 38.0175 20.9915C38.0175 17.4841 36.6518 14.1865 34.1714 11.7065C31.6915 9.22659 28.3942 7.86067 24.8869 7.86067ZM33.3943 29.4989C28.703 34.1907 21.0708 34.1902 16.3795 29.4989C14.107 27.2264 12.8557 24.2055 12.8557 20.9915C12.8557 17.7779 14.1071 14.7565 16.3795 12.4841C18.7251 10.1386 21.8058 8.96623 24.8869 8.96623C27.9676 8.96623 31.0482 10.1386 33.3938 12.4841C35.6664 14.7567 36.9177 17.778 36.9177 20.9915C36.9179 24.2054 35.6665 27.2266 33.394 29.4989H33.3943Z"
    fill="white"
  />
  <path
    d="M32.1195 18.4873L27.9298 17.3694L25.5678 13.7453C25.3648 13.4338 24.8493 13.4338 24.6464 13.7453L22.2843 17.3694L18.0946 18.4873C17.9146 18.5353 17.7708 18.6715 17.7134 18.8489C17.6559 19.0265 17.6921 19.2209 17.8097 19.3656L20.5388 22.7229L20.3117 27.0366C20.3018 27.2224 20.3868 27.4007 20.5372 27.5102C20.6876 27.6198 20.8839 27.6454 21.0574 27.5793L25.1071 26.0301L29.1568 27.5793C29.2206 27.6039 29.287 27.6157 29.3534 27.6157C29.4681 27.6157 29.5816 27.5801 29.6768 27.5104C29.8272 27.4009 29.9124 27.2226 29.9024 27.0368L29.6752 22.723L32.4043 19.3658C32.5219 19.221 32.5583 19.0268 32.5008 18.8493C32.4434 18.6715 32.2996 18.5355 32.1196 18.4873L32.1195 18.4873ZM28.6882 22.1932C28.6023 22.299 28.5586 22.4331 28.5658 22.5691L28.7596 26.2496L25.3036 24.9275C25.2402 24.9035 25.1737 24.8913 25.1071 24.8913C25.0405 24.8913 24.9739 24.9035 24.9105 24.9277L21.4545 26.2497L21.6484 22.5693C21.6557 22.4331 21.6119 22.2992 21.5259 22.1934L19.1989 19.3311L22.7718 18.3778C22.903 18.3427 23.0166 18.2605 23.0907 18.1465L25.1071 15.0526L27.1235 18.1463C27.1976 18.2602 27.3112 18.3423 27.4424 18.3776L31.0153 19.3309L28.6882 22.1932Z"
    stroke="white"
    stroke-width="2.66667"
    mask="url(#path-1-inside-1_4382_86)"
  />
  <path
    d="M41.0471 27.0923C41.0664 26.4694 41.085 25.8812 41.222 25.3684C41.3625 24.842 41.6435 24.3143 41.941 23.7559C42.4017 22.8908 42.8782 21.9962 42.8782 20.9913C42.8782 19.9865 42.4017 19.0919 41.9406 18.2268C41.6431 17.6683 41.3623 17.1407 41.2216 16.6143C41.0847 16.1015 41.0664 15.5135 41.0467 14.8906C41.0159 13.9025 40.9843 12.8808 40.4711 11.9935C39.9794 11.1433 39.1286 10.6122 38.3056 10.0987C37.7588 9.75734 37.2422 9.43499 36.8427 9.03546C36.4432 8.63559 36.1206 8.1192 35.7795 7.57217C35.266 6.74952 34.7349 5.89874 33.8846 5.40707C32.997 4.8939 31.9751 4.86201 30.9871 4.83108C30.3642 4.81157 29.7762 4.79313 29.2634 4.6562C28.7366 4.51569 28.209 4.23467 27.6505 3.9372C26.7858 3.47646 25.891 3 24.8865 3C23.8816 3 22.987 3.47646 22.122 3.9372C21.5635 4.23469 21.0358 4.5159 20.5094 4.6562C19.9966 4.79313 19.4084 4.81157 18.7857 4.83108C17.7977 4.86187 16.7758 4.89391 15.8884 5.40707C15.0381 5.89874 14.5071 6.74953 13.9935 7.57254C13.6522 8.11938 13.3298 8.63594 12.9303 9.03546C12.5308 9.43499 12.0142 9.75753 11.4674 10.0987C10.6446 10.612 9.79363 11.1431 9.30191 11.9935C8.78875 12.8808 8.75685 13.9029 8.72592 14.8909C8.70659 15.5138 8.68798 16.102 8.55105 16.6148C8.41054 17.1412 8.12952 17.6689 7.83205 18.2273C7.3713 19.0924 6.89484 19.987 6.89484 20.9918C6.89484 21.9967 7.3713 22.8913 7.83242 23.7564C8.1299 24.3149 8.41074 24.8425 8.55141 25.3689C8.68834 25.8817 8.7066 26.4697 8.72629 27.0926C8.75708 28.0807 8.78876 29.1024 9.30191 29.99C9.47482 30.2891 9.69391 30.547 9.93893 30.7802L5.0781 38.9004C4.97804 39.0676 4.97392 39.2758 5.06736 39.4467C5.16115 39.6178 5.33835 39.7265 5.53328 39.7324L13.5105 39.9724L17.0916 46.6423C17.185 46.8165 17.3653 46.9271 17.5631 46.9318C17.5674 46.9321 17.5717 46.9321 17.576 46.9321C17.7689 46.9321 17.9484 46.831 18.0478 46.6647L22.9535 38.4698C23.5639 38.7584 24.1992 38.9834 24.8868 38.9834C25.6343 38.9834 26.3206 38.7193 26.9793 38.3946L31.9519 46.7018C32.0512 46.8681 32.2306 46.9692 32.4237 46.9692C32.428 46.9692 32.4323 46.9692 32.4366 46.9688C32.6346 46.9642 32.8147 46.8536 32.9081 46.6794L36.4896 40.0095L44.4668 39.7695C44.6617 39.7635 44.8389 39.6547 44.9327 39.4838C45.0261 39.3127 45.0222 39.1047 44.922 38.9375L39.9621 30.6519C40.1547 30.4523 40.3293 30.2356 40.4714 29.9898C40.9842 29.1024 41.0162 28.0805 41.047 27.0925L41.0471 27.0923ZM17.6021 45.2682L14.3292 39.1725C14.2363 38.9994 14.058 38.8889 13.8615 38.883L6.50285 38.6616L10.8114 31.4643C11.0273 31.6093 11.248 31.748 11.4672 31.8848C12.014 32.2261 12.5306 32.5484 12.9305 32.948C13.3304 33.3478 13.6527 33.8642 13.9939 34.4116C14.5074 35.2342 15.0383 36.0848 15.8884 36.5763C16.776 37.0895 17.7979 37.1214 18.7859 37.1523C19.4088 37.1718 19.9968 37.1903 20.5096 37.3272C20.9888 37.4552 21.4695 37.7004 21.9729 37.9673L17.6021 45.2682ZM36.1386 38.92C35.9421 38.9259 35.7638 39.0363 35.6709 39.2094L32.3978 45.3052L27.9559 37.8852C28.403 37.6508 28.8342 37.4414 29.2638 37.3269C29.7766 37.1899 30.3646 37.1717 30.9875 37.152C31.9755 37.1212 32.9974 37.0891 33.8848 36.576C34.7351 36.0843 35.2661 35.2335 35.7797 34.4105C36.121 33.8637 36.4434 33.3471 36.8429 32.9476C37.2424 32.5481 37.759 32.2255 38.3058 31.8844C38.5747 31.7167 38.8453 31.5457 39.1067 31.3639L43.497 38.6982L36.1386 38.92ZM39.948 27.0584C39.92 27.9498 39.8937 28.7918 39.5191 29.4396C39.1647 30.0526 38.4646 30.4894 37.7238 30.9517C37.1485 31.3106 36.5537 31.682 36.0652 32.1705C35.5768 32.659 35.2055 33.2536 34.8464 33.829C34.3841 34.5701 33.9474 35.2701 33.3343 35.6244C32.6863 35.9992 31.8443 36.0255 30.9531 36.0532C30.2954 36.074 29.6155 36.0951 28.9803 36.2644C28.3316 36.4375 27.7228 36.762 27.1341 37.0756C26.3539 37.4912 25.617 37.8838 24.8867 37.8838C24.1567 37.8838 23.4194 37.4913 22.6392 37.0756C22.0507 36.762 21.4417 36.4379 20.7931 36.2644C20.1579 36.0949 19.478 36.0738 18.8202 36.0532C17.9288 36.0255 17.0868 35.9993 16.4387 35.6244C15.826 35.2701 15.3894 34.5703 14.9269 33.8292C14.568 33.2539 14.1966 32.6588 13.7079 32.1705C13.2195 31.6818 12.6247 31.3108 12.0494 30.9517C11.3084 30.4894 10.6083 30.0526 10.2541 29.4399C9.87963 28.792 9.85331 27.95 9.82557 27.0588C9.80481 26.401 9.78368 25.7212 9.61436 25.0859C9.44091 24.4372 9.11677 23.8283 8.80316 23.2398C8.38718 22.4595 7.99481 21.7226 7.99481 20.9923C7.99481 20.262 8.38734 19.5251 8.80298 18.7449C9.11658 18.1559 9.44092 17.5474 9.61417 16.8987C9.78368 16.2635 9.8048 15.5835 9.82539 14.9257C9.85331 14.0343 9.87962 13.1923 10.2543 12.5445C10.6087 11.9314 11.3087 11.4947 12.0496 11.0324C12.6249 10.6735 13.2196 10.302 13.7081 9.81357C14.1966 9.32511 14.5678 8.73047 14.9269 8.15503C15.3892 7.41399 15.826 6.71397 16.439 6.35971C17.087 5.98526 17.929 5.95895 18.8202 5.93084C19.4778 5.91008 20.1578 5.88896 20.7931 5.71963C21.4417 5.54655 22.0505 5.22205 22.6392 4.90844C23.4191 4.49264 24.1562 4.10008 24.8865 4.10008C25.6168 4.10008 26.3535 4.49262 27.1337 4.90825C27.7227 5.22185 28.3312 5.54619 28.9803 5.71945C29.6155 5.88895 30.2953 5.91008 30.9531 5.93066C31.8445 5.95841 32.6865 5.98454 33.3347 6.35953C33.9473 6.71394 34.3841 7.414 34.8468 8.15485C35.2057 8.73015 35.5771 9.32493 36.0656 9.81339C36.554 10.3019 37.1487 10.6731 37.7241 11.0322C38.4652 11.4945 39.1652 11.9313 39.5194 12.5443C39.8939 13.1923 39.9202 14.0339 39.948 14.9253C39.9687 15.5831 39.9898 16.2633 40.1592 16.8982C40.3326 17.5468 40.6567 18.1558 40.9704 18.7443C41.3863 19.5245 41.7787 20.2614 41.7787 20.9918C41.7787 21.7221 41.3862 22.459 40.9705 23.2392C40.6569 23.8281 40.3326 24.4367 40.1593 25.0853C39.9898 25.7206 39.9685 26.4006 39.948 27.0584Z"
    stroke="white"
    stroke-width="2.66667"
    mask="url(#path-1-inside-1_4382_86)"
  />
  <path
    d="M24.8869 7.86067C21.3794 7.86067 18.0818 9.22641 15.6019 11.7065C13.1216 14.1865 11.7559 17.4843 11.7559 20.9915C11.7559 24.4991 13.1216 27.7966 15.6019 30.2765C18.0819 32.7565 21.3792 34.1224 24.8869 34.1224C28.3943 34.1224 31.6915 32.7567 34.1714 30.2765C36.6518 27.7966 38.0175 24.4992 38.0175 20.9915C38.0175 17.4841 36.6518 14.1865 34.1714 11.7065C31.6915 9.22659 28.3942 7.86067 24.8869 7.86067ZM33.3943 29.4989C28.703 34.1907 21.0708 34.1902 16.3795 29.4989C14.107 27.2264 12.8557 24.2055 12.8557 20.9915C12.8557 17.7779 14.1071 14.7565 16.3795 12.4841C18.7251 10.1386 21.8058 8.96623 24.8869 8.96623C27.9676 8.96623 31.0482 10.1386 33.3938 12.4841C35.6664 14.7567 36.9177 17.778 36.9177 20.9915C36.9179 24.2054 35.6665 27.2266 33.394 29.4989H33.3943Z"
    stroke="white"
    stroke-width="2.66667"
    mask="url(#path-1-inside-1_4382_86)"
  />
</svg>
